%TF.GenerationSoftware,KiCad,Pcbnew,5.1.6*%
%TF.CreationDate,2020-09-28T13:50:18+01:00*%
%TF.ProjectId,3PDT,33504454-2e6b-4696-9361-645f70636258,V1.0*%
%TF.SameCoordinates,Original*%
%TF.FileFunction,Soldermask,Bot*%
%TF.FilePolarity,Negative*%
%FSLAX46Y46*%
G04 Gerber Fmt 4.6, Leading zero omitted, Abs format (unit mm)*
G04 Created by KiCad (PCBNEW 5.1.6) date 2020-09-28 13:50:18*
%MOMM*%
%LPD*%
G01*
G04 APERTURE LIST*
G04 APERTURE END LIST*
%TO.C,J1*%
G36*
G01*
X126533000Y-67259487D02*
X126533000Y-65836513D01*
G75*
G02*
X126796513Y-65573000I263513J0D01*
G01*
X128219487Y-65573000D01*
G75*
G02*
X128483000Y-65836513I0J-263513D01*
G01*
X128483000Y-67259487D01*
G75*
G02*
X128219487Y-67523000I-263513J0D01*
G01*
X126796513Y-67523000D01*
G75*
G02*
X126533000Y-67259487I0J263513D01*
G01*
G37*
%TD*%
%TO.C,J2*%
G36*
G01*
X129835000Y-67259487D02*
X129835000Y-65836513D01*
G75*
G02*
X130098513Y-65573000I263513J0D01*
G01*
X131521487Y-65573000D01*
G75*
G02*
X131785000Y-65836513I0J-263513D01*
G01*
X131785000Y-67259487D01*
G75*
G02*
X131521487Y-67523000I-263513J0D01*
G01*
X130098513Y-67523000D01*
G75*
G02*
X129835000Y-67259487I0J263513D01*
G01*
G37*
%TD*%
%TO.C,J3*%
G36*
G01*
X133137000Y-67259487D02*
X133137000Y-65836513D01*
G75*
G02*
X133400513Y-65573000I263513J0D01*
G01*
X134823487Y-65573000D01*
G75*
G02*
X135087000Y-65836513I0J-263513D01*
G01*
X135087000Y-67259487D01*
G75*
G02*
X134823487Y-67523000I-263513J0D01*
G01*
X133400513Y-67523000D01*
G75*
G02*
X133137000Y-67259487I0J263513D01*
G01*
G37*
%TD*%
%TO.C,J4*%
G36*
G01*
X136439000Y-67259487D02*
X136439000Y-65836513D01*
G75*
G02*
X136702513Y-65573000I263513J0D01*
G01*
X138125487Y-65573000D01*
G75*
G02*
X138389000Y-65836513I0J-263513D01*
G01*
X138389000Y-67259487D01*
G75*
G02*
X138125487Y-67523000I-263513J0D01*
G01*
X136702513Y-67523000D01*
G75*
G02*
X136439000Y-67259487I0J263513D01*
G01*
G37*
%TD*%
%TO.C,J5*%
G36*
G01*
X139741000Y-67259487D02*
X139741000Y-65836513D01*
G75*
G02*
X140004513Y-65573000I263513J0D01*
G01*
X141427487Y-65573000D01*
G75*
G02*
X141691000Y-65836513I0J-263513D01*
G01*
X141691000Y-67259487D01*
G75*
G02*
X141427487Y-67523000I-263513J0D01*
G01*
X140004513Y-67523000D01*
G75*
G02*
X139741000Y-67259487I0J263513D01*
G01*
G37*
%TD*%
%TO.C,J6*%
G36*
G01*
X143043000Y-67259487D02*
X143043000Y-65836513D01*
G75*
G02*
X143306513Y-65573000I263513J0D01*
G01*
X144729487Y-65573000D01*
G75*
G02*
X144993000Y-65836513I0J-263513D01*
G01*
X144993000Y-67259487D01*
G75*
G02*
X144729487Y-67523000I-263513J0D01*
G01*
X143306513Y-67523000D01*
G75*
G02*
X143043000Y-67259487I0J263513D01*
G01*
G37*
%TD*%
%TO.C,J7*%
G36*
G01*
X146345000Y-67259487D02*
X146345000Y-65836513D01*
G75*
G02*
X146608513Y-65573000I263513J0D01*
G01*
X148031487Y-65573000D01*
G75*
G02*
X148295000Y-65836513I0J-263513D01*
G01*
X148295000Y-67259487D01*
G75*
G02*
X148031487Y-67523000I-263513J0D01*
G01*
X146608513Y-67523000D01*
G75*
G02*
X146345000Y-67259487I0J263513D01*
G01*
G37*
%TD*%
%TO.C,J8*%
G36*
G01*
X149647000Y-67259487D02*
X149647000Y-65836513D01*
G75*
G02*
X149910513Y-65573000I263513J0D01*
G01*
X151333487Y-65573000D01*
G75*
G02*
X151597000Y-65836513I0J-263513D01*
G01*
X151597000Y-67259487D01*
G75*
G02*
X151333487Y-67523000I-263513J0D01*
G01*
X149910513Y-67523000D01*
G75*
G02*
X149647000Y-67259487I0J263513D01*
G01*
G37*
%TD*%
%TO.C,J9*%
G36*
G01*
X152949000Y-67259487D02*
X152949000Y-65836513D01*
G75*
G02*
X153212513Y-65573000I263513J0D01*
G01*
X154635487Y-65573000D01*
G75*
G02*
X154899000Y-65836513I0J-263513D01*
G01*
X154899000Y-67259487D01*
G75*
G02*
X154635487Y-67523000I-263513J0D01*
G01*
X153212513Y-67523000D01*
G75*
G02*
X152949000Y-67259487I0J263513D01*
G01*
G37*
%TD*%
%TO.C,sw1*%
G36*
G01*
X133738680Y-74549220D02*
X133738680Y-73447620D01*
G75*
G02*
X134289480Y-72896820I550800J0D01*
G01*
X136891080Y-72896820D01*
G75*
G02*
X137441880Y-73447620I0J-550800D01*
G01*
X137441880Y-74549220D01*
G75*
G02*
X136891080Y-75100020I-550800J0D01*
G01*
X134289480Y-75100020D01*
G75*
G02*
X133738680Y-74549220I0J550800D01*
G01*
G37*
G36*
G01*
X133736140Y-79349820D02*
X133736140Y-78248220D01*
G75*
G02*
X134286940Y-77697420I550800J0D01*
G01*
X136888540Y-77697420D01*
G75*
G02*
X137439340Y-78248220I0J-550800D01*
G01*
X137439340Y-79349820D01*
G75*
G02*
X136888540Y-79900620I-550800J0D01*
G01*
X134286940Y-79900620D01*
G75*
G02*
X133736140Y-79349820I0J550800D01*
G01*
G37*
G36*
G01*
X133737120Y-84144740D02*
X133737120Y-83043140D01*
G75*
G02*
X134287920Y-82492340I550800J0D01*
G01*
X136889520Y-82492340D01*
G75*
G02*
X137440320Y-83043140I0J-550800D01*
G01*
X137440320Y-84144740D01*
G75*
G02*
X136889520Y-84695540I-550800J0D01*
G01*
X134287920Y-84695540D01*
G75*
G02*
X133737120Y-84144740I0J550800D01*
G01*
G37*
G36*
G01*
X139037120Y-74546680D02*
X139037120Y-73445080D01*
G75*
G02*
X139587920Y-72894280I550800J0D01*
G01*
X142189520Y-72894280D01*
G75*
G02*
X142740320Y-73445080I0J-550800D01*
G01*
X142740320Y-74546680D01*
G75*
G02*
X142189520Y-75097480I-550800J0D01*
G01*
X139587920Y-75097480D01*
G75*
G02*
X139037120Y-74546680I0J550800D01*
G01*
G37*
G36*
G01*
X144330480Y-79346680D02*
X144330480Y-78245080D01*
G75*
G02*
X144881280Y-77694280I550800J0D01*
G01*
X147482880Y-77694280D01*
G75*
G02*
X148033680Y-78245080I0J-550800D01*
G01*
X148033680Y-79346680D01*
G75*
G02*
X147482880Y-79897480I-550800J0D01*
G01*
X144881280Y-79897480D01*
G75*
G02*
X144330480Y-79346680I0J550800D01*
G01*
G37*
G36*
G01*
X139032920Y-79349220D02*
X139032920Y-78247620D01*
G75*
G02*
X139583720Y-77696820I550800J0D01*
G01*
X142185320Y-77696820D01*
G75*
G02*
X142736120Y-78247620I0J-550800D01*
G01*
X142736120Y-79349220D01*
G75*
G02*
X142185320Y-79900020I-550800J0D01*
G01*
X139583720Y-79900020D01*
G75*
G02*
X139032920Y-79349220I0J550800D01*
G01*
G37*
G36*
G01*
X139032040Y-84137120D02*
X139032040Y-83035520D01*
G75*
G02*
X139582840Y-82484720I550800J0D01*
G01*
X142184440Y-82484720D01*
G75*
G02*
X142735240Y-83035520I0J-550800D01*
G01*
X142735240Y-84137120D01*
G75*
G02*
X142184440Y-84687920I-550800J0D01*
G01*
X139582840Y-84687920D01*
G75*
G02*
X139032040Y-84137120I0J550800D01*
G01*
G37*
G36*
G01*
X144322860Y-84147280D02*
X144322860Y-83045680D01*
G75*
G02*
X144873660Y-82494880I550800J0D01*
G01*
X147475260Y-82494880D01*
G75*
G02*
X148026060Y-83045680I0J-550800D01*
G01*
X148026060Y-84147280D01*
G75*
G02*
X147475260Y-84698080I-550800J0D01*
G01*
X144873660Y-84698080D01*
G75*
G02*
X144322860Y-84147280I0J550800D01*
G01*
G37*
G36*
G01*
X144329640Y-74547280D02*
X144329640Y-73445680D01*
G75*
G02*
X144880440Y-72894880I550800J0D01*
G01*
X147482040Y-72894880D01*
G75*
G02*
X148032840Y-73445680I0J-550800D01*
G01*
X148032840Y-74547280D01*
G75*
G02*
X147482040Y-75098080I-550800J0D01*
G01*
X144880440Y-75098080D01*
G75*
G02*
X144329640Y-74547280I0J550800D01*
G01*
G37*
%TD*%
M02*
