M48
; DRILL file {KiCad 5.1.6} date Mon Sep 28 13:50:16 2020
; FORMAT={-:-/ absolute / inch / decimal}
; #@! TF.CreationDate,2020-09-28T13:50:16+01:00
; #@! TF.GenerationSoftware,Kicad,Pcbnew,5.1.6
; #@! TF.FileFunction,Plated,1,2,PTH
FMAT,2
INCH
T1C0.0335
T2C0.0591
%
G90
G05
T1
X5.02Y-2.62
X6.06Y-2.62
X5.93Y-2.62
X5.67Y-2.62
X5.54Y-2.62
X5.41Y-2.62
X5.28Y-2.62
X5.15Y-2.62
X5.8Y-2.62
T2
G00X5.3086Y-3.1023
M15
G01X5.3676Y-3.1023
M16
G05
G00X5.3086Y-3.2911
M15
G01X5.3677Y-3.2911
M16
G05
G00X5.3087Y-2.9133
M15
G01X5.3677Y-2.9133
M16
G05
G00X5.5171Y-3.2908
M15
G01X5.5761Y-3.2908
M16
G05
G00X5.5171Y-3.1023
M15
G01X5.5762Y-3.1023
M16
G05
G00X5.5173Y-2.9132
M15
G01X5.5763Y-2.9132
M16
G05
G00X5.7254Y-3.2912
M15
G01X5.7844Y-3.2912
M16
G05
G00X5.7256Y-2.9132
M15
G01X5.7847Y-2.9132
M16
G05
G00X5.7257Y-3.1022
M15
G01X5.7847Y-3.1022
M16
G05
T0
M30
