%TF.GenerationSoftware,KiCad,Pcbnew,5.1.7*%
%TF.CreationDate,2020-10-03T21:56:47+01:00*%
%TF.ProjectId,3PDT,33504454-2e6b-4696-9361-645f70636258,V1.0*%
%TF.SameCoordinates,Original*%
%TF.FileFunction,Copper,L2,Bot*%
%TF.FilePolarity,Positive*%
%FSLAX46Y46*%
G04 Gerber Fmt 4.6, Leading zero omitted, Abs format (unit mm)*
G04 Created by KiCad (PCBNEW 5.1.7) date 2020-10-03 21:56:47*
%MOMM*%
%LPD*%
G01*
G04 APERTURE LIST*
%TA.AperFunction,NonConductor*%
%ADD10C,0.254000*%
%TD*%
%TA.AperFunction,NonConductor*%
%ADD11C,0.100000*%
%TD*%
G04 APERTURE END LIST*
%TO.P,J1,1*%
%TO.N,Net-(J1-Pad1)*%
%TA.AperFunction,ComponentPad*%
G36*
G01*
X126583000Y-67223001D02*
X126583000Y-65872999D01*
G75*
G02*
X126832999Y-65623000I249999J0D01*
G01*
X128183001Y-65623000D01*
G75*
G02*
X128433000Y-65872999I0J-249999D01*
G01*
X128433000Y-67223001D01*
G75*
G02*
X128183001Y-67473000I-249999J0D01*
G01*
X126832999Y-67473000D01*
G75*
G02*
X126583000Y-67223001I0J249999D01*
G01*
G37*
%TD.AperFunction*%
%TD*%
%TO.P,J2,1*%
%TO.N,Net-(J2-Pad1)*%
%TA.AperFunction,ComponentPad*%
G36*
G01*
X129885000Y-67223001D02*
X129885000Y-65872999D01*
G75*
G02*
X130134999Y-65623000I249999J0D01*
G01*
X131485001Y-65623000D01*
G75*
G02*
X131735000Y-65872999I0J-249999D01*
G01*
X131735000Y-67223001D01*
G75*
G02*
X131485001Y-67473000I-249999J0D01*
G01*
X130134999Y-67473000D01*
G75*
G02*
X129885000Y-67223001I0J249999D01*
G01*
G37*
%TD.AperFunction*%
%TD*%
%TO.P,J3,1*%
%TO.N,Net-(J3-Pad1)*%
%TA.AperFunction,ComponentPad*%
G36*
G01*
X133187000Y-67223001D02*
X133187000Y-65872999D01*
G75*
G02*
X133436999Y-65623000I249999J0D01*
G01*
X134787001Y-65623000D01*
G75*
G02*
X135037000Y-65872999I0J-249999D01*
G01*
X135037000Y-67223001D01*
G75*
G02*
X134787001Y-67473000I-249999J0D01*
G01*
X133436999Y-67473000D01*
G75*
G02*
X133187000Y-67223001I0J249999D01*
G01*
G37*
%TD.AperFunction*%
%TD*%
%TO.P,J4,1*%
%TO.N,Net-(J4-Pad1)*%
%TA.AperFunction,ComponentPad*%
G36*
G01*
X136489000Y-67223001D02*
X136489000Y-65872999D01*
G75*
G02*
X136738999Y-65623000I249999J0D01*
G01*
X138089001Y-65623000D01*
G75*
G02*
X138339000Y-65872999I0J-249999D01*
G01*
X138339000Y-67223001D01*
G75*
G02*
X138089001Y-67473000I-249999J0D01*
G01*
X136738999Y-67473000D01*
G75*
G02*
X136489000Y-67223001I0J249999D01*
G01*
G37*
%TD.AperFunction*%
%TD*%
%TO.P,J5,1*%
%TO.N,Net-(J5-Pad1)*%
%TA.AperFunction,ComponentPad*%
G36*
G01*
X139791000Y-67223001D02*
X139791000Y-65872999D01*
G75*
G02*
X140040999Y-65623000I249999J0D01*
G01*
X141391001Y-65623000D01*
G75*
G02*
X141641000Y-65872999I0J-249999D01*
G01*
X141641000Y-67223001D01*
G75*
G02*
X141391001Y-67473000I-249999J0D01*
G01*
X140040999Y-67473000D01*
G75*
G02*
X139791000Y-67223001I0J249999D01*
G01*
G37*
%TD.AperFunction*%
%TD*%
%TO.P,J6,1*%
%TO.N,Net-(J6-Pad1)*%
%TA.AperFunction,ComponentPad*%
G36*
G01*
X143093000Y-67223001D02*
X143093000Y-65872999D01*
G75*
G02*
X143342999Y-65623000I249999J0D01*
G01*
X144693001Y-65623000D01*
G75*
G02*
X144943000Y-65872999I0J-249999D01*
G01*
X144943000Y-67223001D01*
G75*
G02*
X144693001Y-67473000I-249999J0D01*
G01*
X143342999Y-67473000D01*
G75*
G02*
X143093000Y-67223001I0J249999D01*
G01*
G37*
%TD.AperFunction*%
%TD*%
%TO.P,J7,1*%
%TO.N,Net-(J7-Pad1)*%
%TA.AperFunction,ComponentPad*%
G36*
G01*
X146395000Y-67223001D02*
X146395000Y-65872999D01*
G75*
G02*
X146644999Y-65623000I249999J0D01*
G01*
X147995001Y-65623000D01*
G75*
G02*
X148245000Y-65872999I0J-249999D01*
G01*
X148245000Y-67223001D01*
G75*
G02*
X147995001Y-67473000I-249999J0D01*
G01*
X146644999Y-67473000D01*
G75*
G02*
X146395000Y-67223001I0J249999D01*
G01*
G37*
%TD.AperFunction*%
%TD*%
%TO.P,J8,1*%
%TO.N,Net-(J8-Pad1)*%
%TA.AperFunction,ComponentPad*%
G36*
G01*
X149697000Y-67223001D02*
X149697000Y-65872999D01*
G75*
G02*
X149946999Y-65623000I249999J0D01*
G01*
X151297001Y-65623000D01*
G75*
G02*
X151547000Y-65872999I0J-249999D01*
G01*
X151547000Y-67223001D01*
G75*
G02*
X151297001Y-67473000I-249999J0D01*
G01*
X149946999Y-67473000D01*
G75*
G02*
X149697000Y-67223001I0J249999D01*
G01*
G37*
%TD.AperFunction*%
%TD*%
%TO.P,J9,1*%
%TO.N,Net-(J9-Pad1)*%
%TA.AperFunction,ComponentPad*%
G36*
G01*
X152999000Y-67223001D02*
X152999000Y-65872999D01*
G75*
G02*
X153248999Y-65623000I249999J0D01*
G01*
X154599001Y-65623000D01*
G75*
G02*
X154849000Y-65872999I0J-249999D01*
G01*
X154849000Y-67223001D01*
G75*
G02*
X154599001Y-67473000I-249999J0D01*
G01*
X153248999Y-67473000D01*
G75*
G02*
X152999000Y-67223001I0J249999D01*
G01*
G37*
%TD.AperFunction*%
%TD*%
%TO.P,sw1,A1*%
%TO.N,Net-(J1-Pad1)*%
%TA.AperFunction,ComponentPad*%
G36*
G01*
X133840280Y-74498420D02*
X133840280Y-73498420D01*
G75*
G02*
X134340280Y-72998420I500000J0D01*
G01*
X136840280Y-72998420D01*
G75*
G02*
X137340280Y-73498420I0J-500000D01*
G01*
X137340280Y-74498420D01*
G75*
G02*
X136840280Y-74998420I-500000J0D01*
G01*
X134340280Y-74998420D01*
G75*
G02*
X133840280Y-74498420I0J500000D01*
G01*
G37*
%TD.AperFunction*%
%TO.P,sw1,A2*%
%TO.N,Net-(J2-Pad1)*%
%TA.AperFunction,ComponentPad*%
G36*
G01*
X133837740Y-79299020D02*
X133837740Y-78299020D01*
G75*
G02*
X134337740Y-77799020I500000J0D01*
G01*
X136837740Y-77799020D01*
G75*
G02*
X137337740Y-78299020I0J-500000D01*
G01*
X137337740Y-79299020D01*
G75*
G02*
X136837740Y-79799020I-500000J0D01*
G01*
X134337740Y-79799020D01*
G75*
G02*
X133837740Y-79299020I0J500000D01*
G01*
G37*
%TD.AperFunction*%
%TO.P,sw1,A3*%
%TO.N,Net-(J3-Pad1)*%
%TA.AperFunction,ComponentPad*%
G36*
G01*
X133838720Y-84093940D02*
X133838720Y-83093940D01*
G75*
G02*
X134338720Y-82593940I500000J0D01*
G01*
X136838720Y-82593940D01*
G75*
G02*
X137338720Y-83093940I0J-500000D01*
G01*
X137338720Y-84093940D01*
G75*
G02*
X136838720Y-84593940I-500000J0D01*
G01*
X134338720Y-84593940D01*
G75*
G02*
X133838720Y-84093940I0J500000D01*
G01*
G37*
%TD.AperFunction*%
%TO.P,sw1,B1*%
%TO.N,Net-(J4-Pad1)*%
%TA.AperFunction,ComponentPad*%
G36*
G01*
X139138720Y-74495880D02*
X139138720Y-73495880D01*
G75*
G02*
X139638720Y-72995880I500000J0D01*
G01*
X142138720Y-72995880D01*
G75*
G02*
X142638720Y-73495880I0J-500000D01*
G01*
X142638720Y-74495880D01*
G75*
G02*
X142138720Y-74995880I-500000J0D01*
G01*
X139638720Y-74995880D01*
G75*
G02*
X139138720Y-74495880I0J500000D01*
G01*
G37*
%TD.AperFunction*%
%TO.P,sw1,C2*%
%TO.N,Net-(J8-Pad1)*%
%TA.AperFunction,ComponentPad*%
G36*
G01*
X144432080Y-79295880D02*
X144432080Y-78295880D01*
G75*
G02*
X144932080Y-77795880I500000J0D01*
G01*
X147432080Y-77795880D01*
G75*
G02*
X147932080Y-78295880I0J-500000D01*
G01*
X147932080Y-79295880D01*
G75*
G02*
X147432080Y-79795880I-500000J0D01*
G01*
X144932080Y-79795880D01*
G75*
G02*
X144432080Y-79295880I0J500000D01*
G01*
G37*
%TD.AperFunction*%
%TO.P,sw1,B2*%
%TO.N,Net-(J5-Pad1)*%
%TA.AperFunction,ComponentPad*%
G36*
G01*
X139134520Y-79298420D02*
X139134520Y-78298420D01*
G75*
G02*
X139634520Y-77798420I500000J0D01*
G01*
X142134520Y-77798420D01*
G75*
G02*
X142634520Y-78298420I0J-500000D01*
G01*
X142634520Y-79298420D01*
G75*
G02*
X142134520Y-79798420I-500000J0D01*
G01*
X139634520Y-79798420D01*
G75*
G02*
X139134520Y-79298420I0J500000D01*
G01*
G37*
%TD.AperFunction*%
%TO.P,sw1,B3*%
%TO.N,Net-(J6-Pad1)*%
%TA.AperFunction,ComponentPad*%
G36*
G01*
X139133640Y-84086320D02*
X139133640Y-83086320D01*
G75*
G02*
X139633640Y-82586320I500000J0D01*
G01*
X142133640Y-82586320D01*
G75*
G02*
X142633640Y-83086320I0J-500000D01*
G01*
X142633640Y-84086320D01*
G75*
G02*
X142133640Y-84586320I-500000J0D01*
G01*
X139633640Y-84586320D01*
G75*
G02*
X139133640Y-84086320I0J500000D01*
G01*
G37*
%TD.AperFunction*%
%TO.P,sw1,C3*%
%TO.N,Net-(J9-Pad1)*%
%TA.AperFunction,ComponentPad*%
G36*
G01*
X144424460Y-84096480D02*
X144424460Y-83096480D01*
G75*
G02*
X144924460Y-82596480I500000J0D01*
G01*
X147424460Y-82596480D01*
G75*
G02*
X147924460Y-83096480I0J-500000D01*
G01*
X147924460Y-84096480D01*
G75*
G02*
X147424460Y-84596480I-500000J0D01*
G01*
X144924460Y-84596480D01*
G75*
G02*
X144424460Y-84096480I0J500000D01*
G01*
G37*
%TD.AperFunction*%
%TO.P,sw1,C1*%
%TO.N,Net-(J7-Pad1)*%
%TA.AperFunction,ComponentPad*%
G36*
G01*
X144431240Y-74496480D02*
X144431240Y-73496480D01*
G75*
G02*
X144931240Y-72996480I500000J0D01*
G01*
X147431240Y-72996480D01*
G75*
G02*
X147931240Y-73496480I0J-500000D01*
G01*
X147931240Y-74496480D01*
G75*
G02*
X147431240Y-74996480I-500000J0D01*
G01*
X144931240Y-74996480D01*
G75*
G02*
X144431240Y-74496480I0J500000D01*
G01*
G37*
%TD.AperFunction*%
%TD*%
D10*
X155804001Y-89510000D02*
X125628000Y-89510000D01*
X125628000Y-83093940D01*
X133200648Y-83093940D01*
X133200648Y-84093940D01*
X133222516Y-84315967D01*
X133287279Y-84529461D01*
X133392448Y-84726219D01*
X133533982Y-84898678D01*
X133706441Y-85040212D01*
X133903199Y-85145381D01*
X134116693Y-85210144D01*
X134338720Y-85232012D01*
X136838720Y-85232012D01*
X137060747Y-85210144D01*
X137274241Y-85145381D01*
X137470999Y-85040212D01*
X137643458Y-84898678D01*
X137784992Y-84726219D01*
X137890161Y-84529461D01*
X137954924Y-84315967D01*
X137976792Y-84093940D01*
X137976792Y-83093940D01*
X137976042Y-83086320D01*
X138495568Y-83086320D01*
X138495568Y-84086320D01*
X138517436Y-84308347D01*
X138582199Y-84521841D01*
X138687368Y-84718599D01*
X138828902Y-84891058D01*
X139001361Y-85032592D01*
X139198119Y-85137761D01*
X139411613Y-85202524D01*
X139633640Y-85224392D01*
X142133640Y-85224392D01*
X142355667Y-85202524D01*
X142569161Y-85137761D01*
X142765919Y-85032592D01*
X142938378Y-84891058D01*
X143079912Y-84718599D01*
X143185081Y-84521841D01*
X143249844Y-84308347D01*
X143271712Y-84086320D01*
X143271712Y-83096480D01*
X143786388Y-83096480D01*
X143786388Y-84096480D01*
X143808256Y-84318507D01*
X143873019Y-84532001D01*
X143978188Y-84728759D01*
X144119722Y-84901218D01*
X144292181Y-85042752D01*
X144488939Y-85147921D01*
X144702433Y-85212684D01*
X144924460Y-85234552D01*
X147424460Y-85234552D01*
X147646487Y-85212684D01*
X147859981Y-85147921D01*
X148056739Y-85042752D01*
X148229198Y-84901218D01*
X148370732Y-84728759D01*
X148475901Y-84532001D01*
X148540664Y-84318507D01*
X148562532Y-84096480D01*
X148562532Y-83096480D01*
X148540664Y-82874453D01*
X148475901Y-82660959D01*
X148370732Y-82464201D01*
X148229198Y-82291742D01*
X148056739Y-82150208D01*
X147859981Y-82045039D01*
X147646487Y-81980276D01*
X147424460Y-81958408D01*
X144924460Y-81958408D01*
X144702433Y-81980276D01*
X144488939Y-82045039D01*
X144292181Y-82150208D01*
X144119722Y-82291742D01*
X143978188Y-82464201D01*
X143873019Y-82660959D01*
X143808256Y-82874453D01*
X143786388Y-83096480D01*
X143271712Y-83096480D01*
X143271712Y-83086320D01*
X143249844Y-82864293D01*
X143185081Y-82650799D01*
X143079912Y-82454041D01*
X142938378Y-82281582D01*
X142765919Y-82140048D01*
X142569161Y-82034879D01*
X142355667Y-81970116D01*
X142133640Y-81948248D01*
X139633640Y-81948248D01*
X139411613Y-81970116D01*
X139198119Y-82034879D01*
X139001361Y-82140048D01*
X138828902Y-82281582D01*
X138687368Y-82454041D01*
X138582199Y-82650799D01*
X138517436Y-82864293D01*
X138495568Y-83086320D01*
X137976042Y-83086320D01*
X137954924Y-82871913D01*
X137890161Y-82658419D01*
X137784992Y-82461661D01*
X137643458Y-82289202D01*
X137470999Y-82147668D01*
X137274241Y-82042499D01*
X137060747Y-81977736D01*
X136838720Y-81955868D01*
X134338720Y-81955868D01*
X134116693Y-81977736D01*
X133903199Y-82042499D01*
X133706441Y-82147668D01*
X133533982Y-82289202D01*
X133392448Y-82461661D01*
X133287279Y-82658419D01*
X133222516Y-82871913D01*
X133200648Y-83093940D01*
X125628000Y-83093940D01*
X125628000Y-78299020D01*
X133199668Y-78299020D01*
X133199668Y-79299020D01*
X133221536Y-79521047D01*
X133286299Y-79734541D01*
X133391468Y-79931299D01*
X133533002Y-80103758D01*
X133705461Y-80245292D01*
X133902219Y-80350461D01*
X134115713Y-80415224D01*
X134337740Y-80437092D01*
X136837740Y-80437092D01*
X137059767Y-80415224D01*
X137273261Y-80350461D01*
X137470019Y-80245292D01*
X137642478Y-80103758D01*
X137784012Y-79931299D01*
X137889181Y-79734541D01*
X137953944Y-79521047D01*
X137975812Y-79299020D01*
X137975812Y-78299020D01*
X137975753Y-78298420D01*
X138496448Y-78298420D01*
X138496448Y-79298420D01*
X138518316Y-79520447D01*
X138583079Y-79733941D01*
X138688248Y-79930699D01*
X138829782Y-80103158D01*
X139002241Y-80244692D01*
X139198999Y-80349861D01*
X139412493Y-80414624D01*
X139634520Y-80436492D01*
X142134520Y-80436492D01*
X142356547Y-80414624D01*
X142570041Y-80349861D01*
X142766799Y-80244692D01*
X142939258Y-80103158D01*
X143080792Y-79930699D01*
X143185961Y-79733941D01*
X143250724Y-79520447D01*
X143272592Y-79298420D01*
X143272592Y-78298420D01*
X143272342Y-78295880D01*
X143794008Y-78295880D01*
X143794008Y-79295880D01*
X143815876Y-79517907D01*
X143880639Y-79731401D01*
X143985808Y-79928159D01*
X144127342Y-80100618D01*
X144299801Y-80242152D01*
X144496559Y-80347321D01*
X144710053Y-80412084D01*
X144932080Y-80433952D01*
X147432080Y-80433952D01*
X147654107Y-80412084D01*
X147867601Y-80347321D01*
X148064359Y-80242152D01*
X148236818Y-80100618D01*
X148378352Y-79928159D01*
X148483521Y-79731401D01*
X148548284Y-79517907D01*
X148570152Y-79295880D01*
X148570152Y-78295880D01*
X148548284Y-78073853D01*
X148483521Y-77860359D01*
X148378352Y-77663601D01*
X148236818Y-77491142D01*
X148064359Y-77349608D01*
X147867601Y-77244439D01*
X147654107Y-77179676D01*
X147432080Y-77157808D01*
X144932080Y-77157808D01*
X144710053Y-77179676D01*
X144496559Y-77244439D01*
X144299801Y-77349608D01*
X144127342Y-77491142D01*
X143985808Y-77663601D01*
X143880639Y-77860359D01*
X143815876Y-78073853D01*
X143794008Y-78295880D01*
X143272342Y-78295880D01*
X143250724Y-78076393D01*
X143185961Y-77862899D01*
X143080792Y-77666141D01*
X142939258Y-77493682D01*
X142766799Y-77352148D01*
X142570041Y-77246979D01*
X142356547Y-77182216D01*
X142134520Y-77160348D01*
X139634520Y-77160348D01*
X139412493Y-77182216D01*
X139198999Y-77246979D01*
X139002241Y-77352148D01*
X138829782Y-77493682D01*
X138688248Y-77666141D01*
X138583079Y-77862899D01*
X138518316Y-78076393D01*
X138496448Y-78298420D01*
X137975753Y-78298420D01*
X137953944Y-78076993D01*
X137889181Y-77863499D01*
X137784012Y-77666741D01*
X137642478Y-77494282D01*
X137470019Y-77352748D01*
X137273261Y-77247579D01*
X137059767Y-77182816D01*
X136837740Y-77160948D01*
X134337740Y-77160948D01*
X134115713Y-77182816D01*
X133902219Y-77247579D01*
X133705461Y-77352748D01*
X133533002Y-77494282D01*
X133391468Y-77666741D01*
X133286299Y-77863499D01*
X133221536Y-78076993D01*
X133199668Y-78299020D01*
X125628000Y-78299020D01*
X125628000Y-73498420D01*
X133202208Y-73498420D01*
X133202208Y-74498420D01*
X133224076Y-74720447D01*
X133288839Y-74933941D01*
X133394008Y-75130699D01*
X133535542Y-75303158D01*
X133708001Y-75444692D01*
X133904759Y-75549861D01*
X134118253Y-75614624D01*
X134340280Y-75636492D01*
X136840280Y-75636492D01*
X137062307Y-75614624D01*
X137275801Y-75549861D01*
X137472559Y-75444692D01*
X137645018Y-75303158D01*
X137786552Y-75130699D01*
X137891721Y-74933941D01*
X137956484Y-74720447D01*
X137978352Y-74498420D01*
X137978352Y-73498420D01*
X137978102Y-73495880D01*
X138500648Y-73495880D01*
X138500648Y-74495880D01*
X138522516Y-74717907D01*
X138587279Y-74931401D01*
X138692448Y-75128159D01*
X138833982Y-75300618D01*
X139006441Y-75442152D01*
X139203199Y-75547321D01*
X139416693Y-75612084D01*
X139638720Y-75633952D01*
X142138720Y-75633952D01*
X142360747Y-75612084D01*
X142574241Y-75547321D01*
X142770999Y-75442152D01*
X142943458Y-75300618D01*
X143084992Y-75128159D01*
X143190161Y-74931401D01*
X143254924Y-74717907D01*
X143276792Y-74495880D01*
X143276792Y-73496480D01*
X143793168Y-73496480D01*
X143793168Y-74496480D01*
X143815036Y-74718507D01*
X143879799Y-74932001D01*
X143984968Y-75128759D01*
X144126502Y-75301218D01*
X144298961Y-75442752D01*
X144495719Y-75547921D01*
X144709213Y-75612684D01*
X144931240Y-75634552D01*
X147431240Y-75634552D01*
X147653267Y-75612684D01*
X147866761Y-75547921D01*
X148063519Y-75442752D01*
X148235978Y-75301218D01*
X148377512Y-75128759D01*
X148482681Y-74932001D01*
X148547444Y-74718507D01*
X148569312Y-74496480D01*
X148569312Y-73496480D01*
X148547444Y-73274453D01*
X148482681Y-73060959D01*
X148377512Y-72864201D01*
X148235978Y-72691742D01*
X148063519Y-72550208D01*
X147866761Y-72445039D01*
X147653267Y-72380276D01*
X147431240Y-72358408D01*
X144931240Y-72358408D01*
X144709213Y-72380276D01*
X144495719Y-72445039D01*
X144298961Y-72550208D01*
X144126502Y-72691742D01*
X143984968Y-72864201D01*
X143879799Y-73060959D01*
X143815036Y-73274453D01*
X143793168Y-73496480D01*
X143276792Y-73496480D01*
X143276792Y-73495880D01*
X143254924Y-73273853D01*
X143190161Y-73060359D01*
X143084992Y-72863601D01*
X142943458Y-72691142D01*
X142770999Y-72549608D01*
X142574241Y-72444439D01*
X142360747Y-72379676D01*
X142138720Y-72357808D01*
X139638720Y-72357808D01*
X139416693Y-72379676D01*
X139203199Y-72444439D01*
X139006441Y-72549608D01*
X138833982Y-72691142D01*
X138692448Y-72863601D01*
X138587279Y-73060359D01*
X138522516Y-73273853D01*
X138500648Y-73495880D01*
X137978102Y-73495880D01*
X137956484Y-73276393D01*
X137891721Y-73062899D01*
X137786552Y-72866141D01*
X137645018Y-72693682D01*
X137472559Y-72552148D01*
X137275801Y-72446979D01*
X137062307Y-72382216D01*
X136840280Y-72360348D01*
X134340280Y-72360348D01*
X134118253Y-72382216D01*
X133904759Y-72446979D01*
X133708001Y-72552148D01*
X133535542Y-72693682D01*
X133394008Y-72866141D01*
X133288839Y-73062899D01*
X133224076Y-73276393D01*
X133202208Y-73498420D01*
X125628000Y-73498420D01*
X125628000Y-65872999D01*
X125944928Y-65872999D01*
X125944928Y-67223001D01*
X125961992Y-67396255D01*
X126012528Y-67562851D01*
X126094595Y-67716387D01*
X126205038Y-67850962D01*
X126339613Y-67961405D01*
X126493149Y-68043472D01*
X126659745Y-68094008D01*
X126832999Y-68111072D01*
X128183001Y-68111072D01*
X128356255Y-68094008D01*
X128522851Y-68043472D01*
X128676387Y-67961405D01*
X128810962Y-67850962D01*
X128921405Y-67716387D01*
X129003472Y-67562851D01*
X129054008Y-67396255D01*
X129071072Y-67223001D01*
X129071072Y-65872999D01*
X129246928Y-65872999D01*
X129246928Y-67223001D01*
X129263992Y-67396255D01*
X129314528Y-67562851D01*
X129396595Y-67716387D01*
X129507038Y-67850962D01*
X129641613Y-67961405D01*
X129795149Y-68043472D01*
X129961745Y-68094008D01*
X130134999Y-68111072D01*
X131485001Y-68111072D01*
X131658255Y-68094008D01*
X131824851Y-68043472D01*
X131978387Y-67961405D01*
X132112962Y-67850962D01*
X132223405Y-67716387D01*
X132305472Y-67562851D01*
X132356008Y-67396255D01*
X132373072Y-67223001D01*
X132373072Y-65872999D01*
X132548928Y-65872999D01*
X132548928Y-67223001D01*
X132565992Y-67396255D01*
X132616528Y-67562851D01*
X132698595Y-67716387D01*
X132809038Y-67850962D01*
X132943613Y-67961405D01*
X133097149Y-68043472D01*
X133263745Y-68094008D01*
X133436999Y-68111072D01*
X134787001Y-68111072D01*
X134960255Y-68094008D01*
X135126851Y-68043472D01*
X135280387Y-67961405D01*
X135414962Y-67850962D01*
X135525405Y-67716387D01*
X135607472Y-67562851D01*
X135658008Y-67396255D01*
X135675072Y-67223001D01*
X135675072Y-65872999D01*
X135850928Y-65872999D01*
X135850928Y-67223001D01*
X135867992Y-67396255D01*
X135918528Y-67562851D01*
X136000595Y-67716387D01*
X136111038Y-67850962D01*
X136245613Y-67961405D01*
X136399149Y-68043472D01*
X136565745Y-68094008D01*
X136738999Y-68111072D01*
X138089001Y-68111072D01*
X138262255Y-68094008D01*
X138428851Y-68043472D01*
X138582387Y-67961405D01*
X138716962Y-67850962D01*
X138827405Y-67716387D01*
X138909472Y-67562851D01*
X138960008Y-67396255D01*
X138977072Y-67223001D01*
X138977072Y-65872999D01*
X139152928Y-65872999D01*
X139152928Y-67223001D01*
X139169992Y-67396255D01*
X139220528Y-67562851D01*
X139302595Y-67716387D01*
X139413038Y-67850962D01*
X139547613Y-67961405D01*
X139701149Y-68043472D01*
X139867745Y-68094008D01*
X140040999Y-68111072D01*
X141391001Y-68111072D01*
X141564255Y-68094008D01*
X141730851Y-68043472D01*
X141884387Y-67961405D01*
X142018962Y-67850962D01*
X142129405Y-67716387D01*
X142211472Y-67562851D01*
X142262008Y-67396255D01*
X142279072Y-67223001D01*
X142279072Y-65872999D01*
X142454928Y-65872999D01*
X142454928Y-67223001D01*
X142471992Y-67396255D01*
X142522528Y-67562851D01*
X142604595Y-67716387D01*
X142715038Y-67850962D01*
X142849613Y-67961405D01*
X143003149Y-68043472D01*
X143169745Y-68094008D01*
X143342999Y-68111072D01*
X144693001Y-68111072D01*
X144866255Y-68094008D01*
X145032851Y-68043472D01*
X145186387Y-67961405D01*
X145320962Y-67850962D01*
X145431405Y-67716387D01*
X145513472Y-67562851D01*
X145564008Y-67396255D01*
X145581072Y-67223001D01*
X145581072Y-65872999D01*
X145756928Y-65872999D01*
X145756928Y-67223001D01*
X145773992Y-67396255D01*
X145824528Y-67562851D01*
X145906595Y-67716387D01*
X146017038Y-67850962D01*
X146151613Y-67961405D01*
X146305149Y-68043472D01*
X146471745Y-68094008D01*
X146644999Y-68111072D01*
X147995001Y-68111072D01*
X148168255Y-68094008D01*
X148334851Y-68043472D01*
X148488387Y-67961405D01*
X148622962Y-67850962D01*
X148733405Y-67716387D01*
X148815472Y-67562851D01*
X148866008Y-67396255D01*
X148883072Y-67223001D01*
X148883072Y-65872999D01*
X149058928Y-65872999D01*
X149058928Y-67223001D01*
X149075992Y-67396255D01*
X149126528Y-67562851D01*
X149208595Y-67716387D01*
X149319038Y-67850962D01*
X149453613Y-67961405D01*
X149607149Y-68043472D01*
X149773745Y-68094008D01*
X149946999Y-68111072D01*
X151297001Y-68111072D01*
X151470255Y-68094008D01*
X151636851Y-68043472D01*
X151790387Y-67961405D01*
X151924962Y-67850962D01*
X152035405Y-67716387D01*
X152117472Y-67562851D01*
X152168008Y-67396255D01*
X152185072Y-67223001D01*
X152185072Y-65872999D01*
X152360928Y-65872999D01*
X152360928Y-67223001D01*
X152377992Y-67396255D01*
X152428528Y-67562851D01*
X152510595Y-67716387D01*
X152621038Y-67850962D01*
X152755613Y-67961405D01*
X152909149Y-68043472D01*
X153075745Y-68094008D01*
X153248999Y-68111072D01*
X154599001Y-68111072D01*
X154772255Y-68094008D01*
X154938851Y-68043472D01*
X155092387Y-67961405D01*
X155226962Y-67850962D01*
X155337405Y-67716387D01*
X155419472Y-67562851D01*
X155470008Y-67396255D01*
X155487072Y-67223001D01*
X155487072Y-65872999D01*
X155470008Y-65699745D01*
X155419472Y-65533149D01*
X155337405Y-65379613D01*
X155226962Y-65245038D01*
X155092387Y-65134595D01*
X154938851Y-65052528D01*
X154772255Y-65001992D01*
X154599001Y-64984928D01*
X153248999Y-64984928D01*
X153075745Y-65001992D01*
X152909149Y-65052528D01*
X152755613Y-65134595D01*
X152621038Y-65245038D01*
X152510595Y-65379613D01*
X152428528Y-65533149D01*
X152377992Y-65699745D01*
X152360928Y-65872999D01*
X152185072Y-65872999D01*
X152168008Y-65699745D01*
X152117472Y-65533149D01*
X152035405Y-65379613D01*
X151924962Y-65245038D01*
X151790387Y-65134595D01*
X151636851Y-65052528D01*
X151470255Y-65001992D01*
X151297001Y-64984928D01*
X149946999Y-64984928D01*
X149773745Y-65001992D01*
X149607149Y-65052528D01*
X149453613Y-65134595D01*
X149319038Y-65245038D01*
X149208595Y-65379613D01*
X149126528Y-65533149D01*
X149075992Y-65699745D01*
X149058928Y-65872999D01*
X148883072Y-65872999D01*
X148866008Y-65699745D01*
X148815472Y-65533149D01*
X148733405Y-65379613D01*
X148622962Y-65245038D01*
X148488387Y-65134595D01*
X148334851Y-65052528D01*
X148168255Y-65001992D01*
X147995001Y-64984928D01*
X146644999Y-64984928D01*
X146471745Y-65001992D01*
X146305149Y-65052528D01*
X146151613Y-65134595D01*
X146017038Y-65245038D01*
X145906595Y-65379613D01*
X145824528Y-65533149D01*
X145773992Y-65699745D01*
X145756928Y-65872999D01*
X145581072Y-65872999D01*
X145564008Y-65699745D01*
X145513472Y-65533149D01*
X145431405Y-65379613D01*
X145320962Y-65245038D01*
X145186387Y-65134595D01*
X145032851Y-65052528D01*
X144866255Y-65001992D01*
X144693001Y-64984928D01*
X143342999Y-64984928D01*
X143169745Y-65001992D01*
X143003149Y-65052528D01*
X142849613Y-65134595D01*
X142715038Y-65245038D01*
X142604595Y-65379613D01*
X142522528Y-65533149D01*
X142471992Y-65699745D01*
X142454928Y-65872999D01*
X142279072Y-65872999D01*
X142262008Y-65699745D01*
X142211472Y-65533149D01*
X142129405Y-65379613D01*
X142018962Y-65245038D01*
X141884387Y-65134595D01*
X141730851Y-65052528D01*
X141564255Y-65001992D01*
X141391001Y-64984928D01*
X140040999Y-64984928D01*
X139867745Y-65001992D01*
X139701149Y-65052528D01*
X139547613Y-65134595D01*
X139413038Y-65245038D01*
X139302595Y-65379613D01*
X139220528Y-65533149D01*
X139169992Y-65699745D01*
X139152928Y-65872999D01*
X138977072Y-65872999D01*
X138960008Y-65699745D01*
X138909472Y-65533149D01*
X138827405Y-65379613D01*
X138716962Y-65245038D01*
X138582387Y-65134595D01*
X138428851Y-65052528D01*
X138262255Y-65001992D01*
X138089001Y-64984928D01*
X136738999Y-64984928D01*
X136565745Y-65001992D01*
X136399149Y-65052528D01*
X136245613Y-65134595D01*
X136111038Y-65245038D01*
X136000595Y-65379613D01*
X135918528Y-65533149D01*
X135867992Y-65699745D01*
X135850928Y-65872999D01*
X135675072Y-65872999D01*
X135658008Y-65699745D01*
X135607472Y-65533149D01*
X135525405Y-65379613D01*
X135414962Y-65245038D01*
X135280387Y-65134595D01*
X135126851Y-65052528D01*
X134960255Y-65001992D01*
X134787001Y-64984928D01*
X133436999Y-64984928D01*
X133263745Y-65001992D01*
X133097149Y-65052528D01*
X132943613Y-65134595D01*
X132809038Y-65245038D01*
X132698595Y-65379613D01*
X132616528Y-65533149D01*
X132565992Y-65699745D01*
X132548928Y-65872999D01*
X132373072Y-65872999D01*
X132356008Y-65699745D01*
X132305472Y-65533149D01*
X132223405Y-65379613D01*
X132112962Y-65245038D01*
X131978387Y-65134595D01*
X131824851Y-65052528D01*
X131658255Y-65001992D01*
X131485001Y-64984928D01*
X130134999Y-64984928D01*
X129961745Y-65001992D01*
X129795149Y-65052528D01*
X129641613Y-65134595D01*
X129507038Y-65245038D01*
X129396595Y-65379613D01*
X129314528Y-65533149D01*
X129263992Y-65699745D01*
X129246928Y-65872999D01*
X129071072Y-65872999D01*
X129054008Y-65699745D01*
X129003472Y-65533149D01*
X128921405Y-65379613D01*
X128810962Y-65245038D01*
X128676387Y-65134595D01*
X128522851Y-65052528D01*
X128356255Y-65001992D01*
X128183001Y-64984928D01*
X126832999Y-64984928D01*
X126659745Y-65001992D01*
X126493149Y-65052528D01*
X126339613Y-65134595D01*
X126205038Y-65245038D01*
X126094595Y-65379613D01*
X126012528Y-65533149D01*
X125961992Y-65699745D01*
X125944928Y-65872999D01*
X125628000Y-65872999D01*
X125628000Y-64160000D01*
X155804000Y-64160000D01*
X155804001Y-89510000D01*
%TA.AperFunction,NonConductor*%
D11*
G36*
X155804001Y-89510000D02*
G01*
X125628000Y-89510000D01*
X125628000Y-83093940D01*
X133200648Y-83093940D01*
X133200648Y-84093940D01*
X133222516Y-84315967D01*
X133287279Y-84529461D01*
X133392448Y-84726219D01*
X133533982Y-84898678D01*
X133706441Y-85040212D01*
X133903199Y-85145381D01*
X134116693Y-85210144D01*
X134338720Y-85232012D01*
X136838720Y-85232012D01*
X137060747Y-85210144D01*
X137274241Y-85145381D01*
X137470999Y-85040212D01*
X137643458Y-84898678D01*
X137784992Y-84726219D01*
X137890161Y-84529461D01*
X137954924Y-84315967D01*
X137976792Y-84093940D01*
X137976792Y-83093940D01*
X137976042Y-83086320D01*
X138495568Y-83086320D01*
X138495568Y-84086320D01*
X138517436Y-84308347D01*
X138582199Y-84521841D01*
X138687368Y-84718599D01*
X138828902Y-84891058D01*
X139001361Y-85032592D01*
X139198119Y-85137761D01*
X139411613Y-85202524D01*
X139633640Y-85224392D01*
X142133640Y-85224392D01*
X142355667Y-85202524D01*
X142569161Y-85137761D01*
X142765919Y-85032592D01*
X142938378Y-84891058D01*
X143079912Y-84718599D01*
X143185081Y-84521841D01*
X143249844Y-84308347D01*
X143271712Y-84086320D01*
X143271712Y-83096480D01*
X143786388Y-83096480D01*
X143786388Y-84096480D01*
X143808256Y-84318507D01*
X143873019Y-84532001D01*
X143978188Y-84728759D01*
X144119722Y-84901218D01*
X144292181Y-85042752D01*
X144488939Y-85147921D01*
X144702433Y-85212684D01*
X144924460Y-85234552D01*
X147424460Y-85234552D01*
X147646487Y-85212684D01*
X147859981Y-85147921D01*
X148056739Y-85042752D01*
X148229198Y-84901218D01*
X148370732Y-84728759D01*
X148475901Y-84532001D01*
X148540664Y-84318507D01*
X148562532Y-84096480D01*
X148562532Y-83096480D01*
X148540664Y-82874453D01*
X148475901Y-82660959D01*
X148370732Y-82464201D01*
X148229198Y-82291742D01*
X148056739Y-82150208D01*
X147859981Y-82045039D01*
X147646487Y-81980276D01*
X147424460Y-81958408D01*
X144924460Y-81958408D01*
X144702433Y-81980276D01*
X144488939Y-82045039D01*
X144292181Y-82150208D01*
X144119722Y-82291742D01*
X143978188Y-82464201D01*
X143873019Y-82660959D01*
X143808256Y-82874453D01*
X143786388Y-83096480D01*
X143271712Y-83096480D01*
X143271712Y-83086320D01*
X143249844Y-82864293D01*
X143185081Y-82650799D01*
X143079912Y-82454041D01*
X142938378Y-82281582D01*
X142765919Y-82140048D01*
X142569161Y-82034879D01*
X142355667Y-81970116D01*
X142133640Y-81948248D01*
X139633640Y-81948248D01*
X139411613Y-81970116D01*
X139198119Y-82034879D01*
X139001361Y-82140048D01*
X138828902Y-82281582D01*
X138687368Y-82454041D01*
X138582199Y-82650799D01*
X138517436Y-82864293D01*
X138495568Y-83086320D01*
X137976042Y-83086320D01*
X137954924Y-82871913D01*
X137890161Y-82658419D01*
X137784992Y-82461661D01*
X137643458Y-82289202D01*
X137470999Y-82147668D01*
X137274241Y-82042499D01*
X137060747Y-81977736D01*
X136838720Y-81955868D01*
X134338720Y-81955868D01*
X134116693Y-81977736D01*
X133903199Y-82042499D01*
X133706441Y-82147668D01*
X133533982Y-82289202D01*
X133392448Y-82461661D01*
X133287279Y-82658419D01*
X133222516Y-82871913D01*
X133200648Y-83093940D01*
X125628000Y-83093940D01*
X125628000Y-78299020D01*
X133199668Y-78299020D01*
X133199668Y-79299020D01*
X133221536Y-79521047D01*
X133286299Y-79734541D01*
X133391468Y-79931299D01*
X133533002Y-80103758D01*
X133705461Y-80245292D01*
X133902219Y-80350461D01*
X134115713Y-80415224D01*
X134337740Y-80437092D01*
X136837740Y-80437092D01*
X137059767Y-80415224D01*
X137273261Y-80350461D01*
X137470019Y-80245292D01*
X137642478Y-80103758D01*
X137784012Y-79931299D01*
X137889181Y-79734541D01*
X137953944Y-79521047D01*
X137975812Y-79299020D01*
X137975812Y-78299020D01*
X137975753Y-78298420D01*
X138496448Y-78298420D01*
X138496448Y-79298420D01*
X138518316Y-79520447D01*
X138583079Y-79733941D01*
X138688248Y-79930699D01*
X138829782Y-80103158D01*
X139002241Y-80244692D01*
X139198999Y-80349861D01*
X139412493Y-80414624D01*
X139634520Y-80436492D01*
X142134520Y-80436492D01*
X142356547Y-80414624D01*
X142570041Y-80349861D01*
X142766799Y-80244692D01*
X142939258Y-80103158D01*
X143080792Y-79930699D01*
X143185961Y-79733941D01*
X143250724Y-79520447D01*
X143272592Y-79298420D01*
X143272592Y-78298420D01*
X143272342Y-78295880D01*
X143794008Y-78295880D01*
X143794008Y-79295880D01*
X143815876Y-79517907D01*
X143880639Y-79731401D01*
X143985808Y-79928159D01*
X144127342Y-80100618D01*
X144299801Y-80242152D01*
X144496559Y-80347321D01*
X144710053Y-80412084D01*
X144932080Y-80433952D01*
X147432080Y-80433952D01*
X147654107Y-80412084D01*
X147867601Y-80347321D01*
X148064359Y-80242152D01*
X148236818Y-80100618D01*
X148378352Y-79928159D01*
X148483521Y-79731401D01*
X148548284Y-79517907D01*
X148570152Y-79295880D01*
X148570152Y-78295880D01*
X148548284Y-78073853D01*
X148483521Y-77860359D01*
X148378352Y-77663601D01*
X148236818Y-77491142D01*
X148064359Y-77349608D01*
X147867601Y-77244439D01*
X147654107Y-77179676D01*
X147432080Y-77157808D01*
X144932080Y-77157808D01*
X144710053Y-77179676D01*
X144496559Y-77244439D01*
X144299801Y-77349608D01*
X144127342Y-77491142D01*
X143985808Y-77663601D01*
X143880639Y-77860359D01*
X143815876Y-78073853D01*
X143794008Y-78295880D01*
X143272342Y-78295880D01*
X143250724Y-78076393D01*
X143185961Y-77862899D01*
X143080792Y-77666141D01*
X142939258Y-77493682D01*
X142766799Y-77352148D01*
X142570041Y-77246979D01*
X142356547Y-77182216D01*
X142134520Y-77160348D01*
X139634520Y-77160348D01*
X139412493Y-77182216D01*
X139198999Y-77246979D01*
X139002241Y-77352148D01*
X138829782Y-77493682D01*
X138688248Y-77666141D01*
X138583079Y-77862899D01*
X138518316Y-78076393D01*
X138496448Y-78298420D01*
X137975753Y-78298420D01*
X137953944Y-78076993D01*
X137889181Y-77863499D01*
X137784012Y-77666741D01*
X137642478Y-77494282D01*
X137470019Y-77352748D01*
X137273261Y-77247579D01*
X137059767Y-77182816D01*
X136837740Y-77160948D01*
X134337740Y-77160948D01*
X134115713Y-77182816D01*
X133902219Y-77247579D01*
X133705461Y-77352748D01*
X133533002Y-77494282D01*
X133391468Y-77666741D01*
X133286299Y-77863499D01*
X133221536Y-78076993D01*
X133199668Y-78299020D01*
X125628000Y-78299020D01*
X125628000Y-73498420D01*
X133202208Y-73498420D01*
X133202208Y-74498420D01*
X133224076Y-74720447D01*
X133288839Y-74933941D01*
X133394008Y-75130699D01*
X133535542Y-75303158D01*
X133708001Y-75444692D01*
X133904759Y-75549861D01*
X134118253Y-75614624D01*
X134340280Y-75636492D01*
X136840280Y-75636492D01*
X137062307Y-75614624D01*
X137275801Y-75549861D01*
X137472559Y-75444692D01*
X137645018Y-75303158D01*
X137786552Y-75130699D01*
X137891721Y-74933941D01*
X137956484Y-74720447D01*
X137978352Y-74498420D01*
X137978352Y-73498420D01*
X137978102Y-73495880D01*
X138500648Y-73495880D01*
X138500648Y-74495880D01*
X138522516Y-74717907D01*
X138587279Y-74931401D01*
X138692448Y-75128159D01*
X138833982Y-75300618D01*
X139006441Y-75442152D01*
X139203199Y-75547321D01*
X139416693Y-75612084D01*
X139638720Y-75633952D01*
X142138720Y-75633952D01*
X142360747Y-75612084D01*
X142574241Y-75547321D01*
X142770999Y-75442152D01*
X142943458Y-75300618D01*
X143084992Y-75128159D01*
X143190161Y-74931401D01*
X143254924Y-74717907D01*
X143276792Y-74495880D01*
X143276792Y-73496480D01*
X143793168Y-73496480D01*
X143793168Y-74496480D01*
X143815036Y-74718507D01*
X143879799Y-74932001D01*
X143984968Y-75128759D01*
X144126502Y-75301218D01*
X144298961Y-75442752D01*
X144495719Y-75547921D01*
X144709213Y-75612684D01*
X144931240Y-75634552D01*
X147431240Y-75634552D01*
X147653267Y-75612684D01*
X147866761Y-75547921D01*
X148063519Y-75442752D01*
X148235978Y-75301218D01*
X148377512Y-75128759D01*
X148482681Y-74932001D01*
X148547444Y-74718507D01*
X148569312Y-74496480D01*
X148569312Y-73496480D01*
X148547444Y-73274453D01*
X148482681Y-73060959D01*
X148377512Y-72864201D01*
X148235978Y-72691742D01*
X148063519Y-72550208D01*
X147866761Y-72445039D01*
X147653267Y-72380276D01*
X147431240Y-72358408D01*
X144931240Y-72358408D01*
X144709213Y-72380276D01*
X144495719Y-72445039D01*
X144298961Y-72550208D01*
X144126502Y-72691742D01*
X143984968Y-72864201D01*
X143879799Y-73060959D01*
X143815036Y-73274453D01*
X143793168Y-73496480D01*
X143276792Y-73496480D01*
X143276792Y-73495880D01*
X143254924Y-73273853D01*
X143190161Y-73060359D01*
X143084992Y-72863601D01*
X142943458Y-72691142D01*
X142770999Y-72549608D01*
X142574241Y-72444439D01*
X142360747Y-72379676D01*
X142138720Y-72357808D01*
X139638720Y-72357808D01*
X139416693Y-72379676D01*
X139203199Y-72444439D01*
X139006441Y-72549608D01*
X138833982Y-72691142D01*
X138692448Y-72863601D01*
X138587279Y-73060359D01*
X138522516Y-73273853D01*
X138500648Y-73495880D01*
X137978102Y-73495880D01*
X137956484Y-73276393D01*
X137891721Y-73062899D01*
X137786552Y-72866141D01*
X137645018Y-72693682D01*
X137472559Y-72552148D01*
X137275801Y-72446979D01*
X137062307Y-72382216D01*
X136840280Y-72360348D01*
X134340280Y-72360348D01*
X134118253Y-72382216D01*
X133904759Y-72446979D01*
X133708001Y-72552148D01*
X133535542Y-72693682D01*
X133394008Y-72866141D01*
X133288839Y-73062899D01*
X133224076Y-73276393D01*
X133202208Y-73498420D01*
X125628000Y-73498420D01*
X125628000Y-65872999D01*
X125944928Y-65872999D01*
X125944928Y-67223001D01*
X125961992Y-67396255D01*
X126012528Y-67562851D01*
X126094595Y-67716387D01*
X126205038Y-67850962D01*
X126339613Y-67961405D01*
X126493149Y-68043472D01*
X126659745Y-68094008D01*
X126832999Y-68111072D01*
X128183001Y-68111072D01*
X128356255Y-68094008D01*
X128522851Y-68043472D01*
X128676387Y-67961405D01*
X128810962Y-67850962D01*
X128921405Y-67716387D01*
X129003472Y-67562851D01*
X129054008Y-67396255D01*
X129071072Y-67223001D01*
X129071072Y-65872999D01*
X129246928Y-65872999D01*
X129246928Y-67223001D01*
X129263992Y-67396255D01*
X129314528Y-67562851D01*
X129396595Y-67716387D01*
X129507038Y-67850962D01*
X129641613Y-67961405D01*
X129795149Y-68043472D01*
X129961745Y-68094008D01*
X130134999Y-68111072D01*
X131485001Y-68111072D01*
X131658255Y-68094008D01*
X131824851Y-68043472D01*
X131978387Y-67961405D01*
X132112962Y-67850962D01*
X132223405Y-67716387D01*
X132305472Y-67562851D01*
X132356008Y-67396255D01*
X132373072Y-67223001D01*
X132373072Y-65872999D01*
X132548928Y-65872999D01*
X132548928Y-67223001D01*
X132565992Y-67396255D01*
X132616528Y-67562851D01*
X132698595Y-67716387D01*
X132809038Y-67850962D01*
X132943613Y-67961405D01*
X133097149Y-68043472D01*
X133263745Y-68094008D01*
X133436999Y-68111072D01*
X134787001Y-68111072D01*
X134960255Y-68094008D01*
X135126851Y-68043472D01*
X135280387Y-67961405D01*
X135414962Y-67850962D01*
X135525405Y-67716387D01*
X135607472Y-67562851D01*
X135658008Y-67396255D01*
X135675072Y-67223001D01*
X135675072Y-65872999D01*
X135850928Y-65872999D01*
X135850928Y-67223001D01*
X135867992Y-67396255D01*
X135918528Y-67562851D01*
X136000595Y-67716387D01*
X136111038Y-67850962D01*
X136245613Y-67961405D01*
X136399149Y-68043472D01*
X136565745Y-68094008D01*
X136738999Y-68111072D01*
X138089001Y-68111072D01*
X138262255Y-68094008D01*
X138428851Y-68043472D01*
X138582387Y-67961405D01*
X138716962Y-67850962D01*
X138827405Y-67716387D01*
X138909472Y-67562851D01*
X138960008Y-67396255D01*
X138977072Y-67223001D01*
X138977072Y-65872999D01*
X139152928Y-65872999D01*
X139152928Y-67223001D01*
X139169992Y-67396255D01*
X139220528Y-67562851D01*
X139302595Y-67716387D01*
X139413038Y-67850962D01*
X139547613Y-67961405D01*
X139701149Y-68043472D01*
X139867745Y-68094008D01*
X140040999Y-68111072D01*
X141391001Y-68111072D01*
X141564255Y-68094008D01*
X141730851Y-68043472D01*
X141884387Y-67961405D01*
X142018962Y-67850962D01*
X142129405Y-67716387D01*
X142211472Y-67562851D01*
X142262008Y-67396255D01*
X142279072Y-67223001D01*
X142279072Y-65872999D01*
X142454928Y-65872999D01*
X142454928Y-67223001D01*
X142471992Y-67396255D01*
X142522528Y-67562851D01*
X142604595Y-67716387D01*
X142715038Y-67850962D01*
X142849613Y-67961405D01*
X143003149Y-68043472D01*
X143169745Y-68094008D01*
X143342999Y-68111072D01*
X144693001Y-68111072D01*
X144866255Y-68094008D01*
X145032851Y-68043472D01*
X145186387Y-67961405D01*
X145320962Y-67850962D01*
X145431405Y-67716387D01*
X145513472Y-67562851D01*
X145564008Y-67396255D01*
X145581072Y-67223001D01*
X145581072Y-65872999D01*
X145756928Y-65872999D01*
X145756928Y-67223001D01*
X145773992Y-67396255D01*
X145824528Y-67562851D01*
X145906595Y-67716387D01*
X146017038Y-67850962D01*
X146151613Y-67961405D01*
X146305149Y-68043472D01*
X146471745Y-68094008D01*
X146644999Y-68111072D01*
X147995001Y-68111072D01*
X148168255Y-68094008D01*
X148334851Y-68043472D01*
X148488387Y-67961405D01*
X148622962Y-67850962D01*
X148733405Y-67716387D01*
X148815472Y-67562851D01*
X148866008Y-67396255D01*
X148883072Y-67223001D01*
X148883072Y-65872999D01*
X149058928Y-65872999D01*
X149058928Y-67223001D01*
X149075992Y-67396255D01*
X149126528Y-67562851D01*
X149208595Y-67716387D01*
X149319038Y-67850962D01*
X149453613Y-67961405D01*
X149607149Y-68043472D01*
X149773745Y-68094008D01*
X149946999Y-68111072D01*
X151297001Y-68111072D01*
X151470255Y-68094008D01*
X151636851Y-68043472D01*
X151790387Y-67961405D01*
X151924962Y-67850962D01*
X152035405Y-67716387D01*
X152117472Y-67562851D01*
X152168008Y-67396255D01*
X152185072Y-67223001D01*
X152185072Y-65872999D01*
X152360928Y-65872999D01*
X152360928Y-67223001D01*
X152377992Y-67396255D01*
X152428528Y-67562851D01*
X152510595Y-67716387D01*
X152621038Y-67850962D01*
X152755613Y-67961405D01*
X152909149Y-68043472D01*
X153075745Y-68094008D01*
X153248999Y-68111072D01*
X154599001Y-68111072D01*
X154772255Y-68094008D01*
X154938851Y-68043472D01*
X155092387Y-67961405D01*
X155226962Y-67850962D01*
X155337405Y-67716387D01*
X155419472Y-67562851D01*
X155470008Y-67396255D01*
X155487072Y-67223001D01*
X155487072Y-65872999D01*
X155470008Y-65699745D01*
X155419472Y-65533149D01*
X155337405Y-65379613D01*
X155226962Y-65245038D01*
X155092387Y-65134595D01*
X154938851Y-65052528D01*
X154772255Y-65001992D01*
X154599001Y-64984928D01*
X153248999Y-64984928D01*
X153075745Y-65001992D01*
X152909149Y-65052528D01*
X152755613Y-65134595D01*
X152621038Y-65245038D01*
X152510595Y-65379613D01*
X152428528Y-65533149D01*
X152377992Y-65699745D01*
X152360928Y-65872999D01*
X152185072Y-65872999D01*
X152168008Y-65699745D01*
X152117472Y-65533149D01*
X152035405Y-65379613D01*
X151924962Y-65245038D01*
X151790387Y-65134595D01*
X151636851Y-65052528D01*
X151470255Y-65001992D01*
X151297001Y-64984928D01*
X149946999Y-64984928D01*
X149773745Y-65001992D01*
X149607149Y-65052528D01*
X149453613Y-65134595D01*
X149319038Y-65245038D01*
X149208595Y-65379613D01*
X149126528Y-65533149D01*
X149075992Y-65699745D01*
X149058928Y-65872999D01*
X148883072Y-65872999D01*
X148866008Y-65699745D01*
X148815472Y-65533149D01*
X148733405Y-65379613D01*
X148622962Y-65245038D01*
X148488387Y-65134595D01*
X148334851Y-65052528D01*
X148168255Y-65001992D01*
X147995001Y-64984928D01*
X146644999Y-64984928D01*
X146471745Y-65001992D01*
X146305149Y-65052528D01*
X146151613Y-65134595D01*
X146017038Y-65245038D01*
X145906595Y-65379613D01*
X145824528Y-65533149D01*
X145773992Y-65699745D01*
X145756928Y-65872999D01*
X145581072Y-65872999D01*
X145564008Y-65699745D01*
X145513472Y-65533149D01*
X145431405Y-65379613D01*
X145320962Y-65245038D01*
X145186387Y-65134595D01*
X145032851Y-65052528D01*
X144866255Y-65001992D01*
X144693001Y-64984928D01*
X143342999Y-64984928D01*
X143169745Y-65001992D01*
X143003149Y-65052528D01*
X142849613Y-65134595D01*
X142715038Y-65245038D01*
X142604595Y-65379613D01*
X142522528Y-65533149D01*
X142471992Y-65699745D01*
X142454928Y-65872999D01*
X142279072Y-65872999D01*
X142262008Y-65699745D01*
X142211472Y-65533149D01*
X142129405Y-65379613D01*
X142018962Y-65245038D01*
X141884387Y-65134595D01*
X141730851Y-65052528D01*
X141564255Y-65001992D01*
X141391001Y-64984928D01*
X140040999Y-64984928D01*
X139867745Y-65001992D01*
X139701149Y-65052528D01*
X139547613Y-65134595D01*
X139413038Y-65245038D01*
X139302595Y-65379613D01*
X139220528Y-65533149D01*
X139169992Y-65699745D01*
X139152928Y-65872999D01*
X138977072Y-65872999D01*
X138960008Y-65699745D01*
X138909472Y-65533149D01*
X138827405Y-65379613D01*
X138716962Y-65245038D01*
X138582387Y-65134595D01*
X138428851Y-65052528D01*
X138262255Y-65001992D01*
X138089001Y-64984928D01*
X136738999Y-64984928D01*
X136565745Y-65001992D01*
X136399149Y-65052528D01*
X136245613Y-65134595D01*
X136111038Y-65245038D01*
X136000595Y-65379613D01*
X135918528Y-65533149D01*
X135867992Y-65699745D01*
X135850928Y-65872999D01*
X135675072Y-65872999D01*
X135658008Y-65699745D01*
X135607472Y-65533149D01*
X135525405Y-65379613D01*
X135414962Y-65245038D01*
X135280387Y-65134595D01*
X135126851Y-65052528D01*
X134960255Y-65001992D01*
X134787001Y-64984928D01*
X133436999Y-64984928D01*
X133263745Y-65001992D01*
X133097149Y-65052528D01*
X132943613Y-65134595D01*
X132809038Y-65245038D01*
X132698595Y-65379613D01*
X132616528Y-65533149D01*
X132565992Y-65699745D01*
X132548928Y-65872999D01*
X132373072Y-65872999D01*
X132356008Y-65699745D01*
X132305472Y-65533149D01*
X132223405Y-65379613D01*
X132112962Y-65245038D01*
X131978387Y-65134595D01*
X131824851Y-65052528D01*
X131658255Y-65001992D01*
X131485001Y-64984928D01*
X130134999Y-64984928D01*
X129961745Y-65001992D01*
X129795149Y-65052528D01*
X129641613Y-65134595D01*
X129507038Y-65245038D01*
X129396595Y-65379613D01*
X129314528Y-65533149D01*
X129263992Y-65699745D01*
X129246928Y-65872999D01*
X129071072Y-65872999D01*
X129054008Y-65699745D01*
X129003472Y-65533149D01*
X128921405Y-65379613D01*
X128810962Y-65245038D01*
X128676387Y-65134595D01*
X128522851Y-65052528D01*
X128356255Y-65001992D01*
X128183001Y-64984928D01*
X126832999Y-64984928D01*
X126659745Y-65001992D01*
X126493149Y-65052528D01*
X126339613Y-65134595D01*
X126205038Y-65245038D01*
X126094595Y-65379613D01*
X126012528Y-65533149D01*
X125961992Y-65699745D01*
X125944928Y-65872999D01*
X125628000Y-65872999D01*
X125628000Y-64160000D01*
X155804000Y-64160000D01*
X155804001Y-89510000D01*
G37*
%TD.AperFunction*%
M02*
