%TF.GenerationSoftware,KiCad,Pcbnew,5.1.6*%
%TF.CreationDate,2020-09-28T13:50:18+01:00*%
%TF.ProjectId,3PDT,33504454-2e6b-4696-9361-645f70636258,V1.0*%
%TF.SameCoordinates,Original*%
%TF.FileFunction,Legend,Top*%
%TF.FilePolarity,Positive*%
%FSLAX46Y46*%
G04 Gerber Fmt 4.6, Leading zero omitted, Abs format (unit mm)*
G04 Created by KiCad (PCBNEW 5.1.6) date 2020-09-28 13:50:18*
%MOMM*%
%LPD*%
G01*
G04 APERTURE LIST*
%ADD10C,0.150000*%
%ADD11C,0.203200*%
G04 APERTURE END LIST*
D10*
X145883333Y-81891142D02*
X145835714Y-81938761D01*
X145692857Y-81986380D01*
X145597619Y-81986380D01*
X145454761Y-81938761D01*
X145359523Y-81843523D01*
X145311904Y-81748285D01*
X145264285Y-81557809D01*
X145264285Y-81414952D01*
X145311904Y-81224476D01*
X145359523Y-81129238D01*
X145454761Y-81034000D01*
X145597619Y-80986380D01*
X145692857Y-80986380D01*
X145835714Y-81034000D01*
X145883333Y-81081619D01*
X146216666Y-80986380D02*
X146835714Y-80986380D01*
X146502380Y-81367333D01*
X146645238Y-81367333D01*
X146740476Y-81414952D01*
X146788095Y-81462571D01*
X146835714Y-81557809D01*
X146835714Y-81795904D01*
X146788095Y-81891142D01*
X146740476Y-81938761D01*
X146645238Y-81986380D01*
X146359523Y-81986380D01*
X146264285Y-81938761D01*
X146216666Y-81891142D01*
X140565238Y-81462571D02*
X140708095Y-81510190D01*
X140755714Y-81557809D01*
X140803333Y-81653047D01*
X140803333Y-81795904D01*
X140755714Y-81891142D01*
X140708095Y-81938761D01*
X140612857Y-81986380D01*
X140231904Y-81986380D01*
X140231904Y-80986380D01*
X140565238Y-80986380D01*
X140660476Y-81034000D01*
X140708095Y-81081619D01*
X140755714Y-81176857D01*
X140755714Y-81272095D01*
X140708095Y-81367333D01*
X140660476Y-81414952D01*
X140565238Y-81462571D01*
X140231904Y-81462571D01*
X141136666Y-80986380D02*
X141755714Y-80986380D01*
X141422380Y-81367333D01*
X141565238Y-81367333D01*
X141660476Y-81414952D01*
X141708095Y-81462571D01*
X141755714Y-81557809D01*
X141755714Y-81795904D01*
X141708095Y-81891142D01*
X141660476Y-81938761D01*
X141565238Y-81986380D01*
X141279523Y-81986380D01*
X141184285Y-81938761D01*
X141136666Y-81891142D01*
X134667714Y-81700666D02*
X135143904Y-81700666D01*
X134572476Y-81986380D02*
X134905809Y-80986380D01*
X135239142Y-81986380D01*
X135477238Y-80986380D02*
X136096285Y-80986380D01*
X135762952Y-81367333D01*
X135905809Y-81367333D01*
X136001047Y-81414952D01*
X136048666Y-81462571D01*
X136096285Y-81557809D01*
X136096285Y-81795904D01*
X136048666Y-81891142D01*
X136001047Y-81938761D01*
X135905809Y-81986380D01*
X135620095Y-81986380D01*
X135524857Y-81938761D01*
X135477238Y-81891142D01*
X146137333Y-77065142D02*
X146089714Y-77112761D01*
X145946857Y-77160380D01*
X145851619Y-77160380D01*
X145708761Y-77112761D01*
X145613523Y-77017523D01*
X145565904Y-76922285D01*
X145518285Y-76731809D01*
X145518285Y-76588952D01*
X145565904Y-76398476D01*
X145613523Y-76303238D01*
X145708761Y-76208000D01*
X145851619Y-76160380D01*
X145946857Y-76160380D01*
X146089714Y-76208000D01*
X146137333Y-76255619D01*
X146518285Y-76255619D02*
X146565904Y-76208000D01*
X146661142Y-76160380D01*
X146899238Y-76160380D01*
X146994476Y-76208000D01*
X147042095Y-76255619D01*
X147089714Y-76350857D01*
X147089714Y-76446095D01*
X147042095Y-76588952D01*
X146470666Y-77160380D01*
X147089714Y-77160380D01*
X140565238Y-76636571D02*
X140708095Y-76684190D01*
X140755714Y-76731809D01*
X140803333Y-76827047D01*
X140803333Y-76969904D01*
X140755714Y-77065142D01*
X140708095Y-77112761D01*
X140612857Y-77160380D01*
X140231904Y-77160380D01*
X140231904Y-76160380D01*
X140565238Y-76160380D01*
X140660476Y-76208000D01*
X140708095Y-76255619D01*
X140755714Y-76350857D01*
X140755714Y-76446095D01*
X140708095Y-76541333D01*
X140660476Y-76588952D01*
X140565238Y-76636571D01*
X140231904Y-76636571D01*
X141184285Y-76255619D02*
X141231904Y-76208000D01*
X141327142Y-76160380D01*
X141565238Y-76160380D01*
X141660476Y-76208000D01*
X141708095Y-76255619D01*
X141755714Y-76350857D01*
X141755714Y-76446095D01*
X141708095Y-76588952D01*
X141136666Y-77160380D01*
X141755714Y-77160380D01*
X134667714Y-76874666D02*
X135143904Y-76874666D01*
X134572476Y-77160380D02*
X134905809Y-76160380D01*
X135239142Y-77160380D01*
X135524857Y-76255619D02*
X135572476Y-76208000D01*
X135667714Y-76160380D01*
X135905809Y-76160380D01*
X136001047Y-76208000D01*
X136048666Y-76255619D01*
X136096285Y-76350857D01*
X136096285Y-76446095D01*
X136048666Y-76588952D01*
X135477238Y-77160380D01*
X136096285Y-77160380D01*
X145883333Y-72239142D02*
X145835714Y-72286761D01*
X145692857Y-72334380D01*
X145597619Y-72334380D01*
X145454761Y-72286761D01*
X145359523Y-72191523D01*
X145311904Y-72096285D01*
X145264285Y-71905809D01*
X145264285Y-71762952D01*
X145311904Y-71572476D01*
X145359523Y-71477238D01*
X145454761Y-71382000D01*
X145597619Y-71334380D01*
X145692857Y-71334380D01*
X145835714Y-71382000D01*
X145883333Y-71429619D01*
X146835714Y-72334380D02*
X146264285Y-72334380D01*
X146550000Y-72334380D02*
X146550000Y-71334380D01*
X146454761Y-71477238D01*
X146359523Y-71572476D01*
X146264285Y-71620095D01*
X140565238Y-71810571D02*
X140708095Y-71858190D01*
X140755714Y-71905809D01*
X140803333Y-72001047D01*
X140803333Y-72143904D01*
X140755714Y-72239142D01*
X140708095Y-72286761D01*
X140612857Y-72334380D01*
X140231904Y-72334380D01*
X140231904Y-71334380D01*
X140565238Y-71334380D01*
X140660476Y-71382000D01*
X140708095Y-71429619D01*
X140755714Y-71524857D01*
X140755714Y-71620095D01*
X140708095Y-71715333D01*
X140660476Y-71762952D01*
X140565238Y-71810571D01*
X140231904Y-71810571D01*
X141755714Y-72334380D02*
X141184285Y-72334380D01*
X141470000Y-72334380D02*
X141470000Y-71334380D01*
X141374761Y-71477238D01*
X141279523Y-71572476D01*
X141184285Y-71620095D01*
X134667714Y-72048666D02*
X135143904Y-72048666D01*
X134572476Y-72334380D02*
X134905809Y-71334380D01*
X135239142Y-72334380D01*
X136096285Y-72334380D02*
X135524857Y-72334380D01*
X135810571Y-72334380D02*
X135810571Y-71334380D01*
X135715333Y-71477238D01*
X135620095Y-71572476D01*
X135524857Y-71620095D01*
D11*
%TO.C,sw1*%
X131122420Y-70241160D02*
X150817580Y-70241160D01*
X150817580Y-70241160D02*
X150817580Y-87238840D01*
X150817580Y-87238840D02*
X131122420Y-87238840D01*
X131122420Y-87238840D02*
X131122420Y-70241160D01*
%TO.C,J1*%
D10*
X127174666Y-63880380D02*
X127174666Y-64594666D01*
X127127047Y-64737523D01*
X127031809Y-64832761D01*
X126888952Y-64880380D01*
X126793714Y-64880380D01*
X128174666Y-64880380D02*
X127603238Y-64880380D01*
X127888952Y-64880380D02*
X127888952Y-63880380D01*
X127793714Y-64023238D01*
X127698476Y-64118476D01*
X127603238Y-64166095D01*
%TO.C,J2*%
X130476666Y-63880380D02*
X130476666Y-64594666D01*
X130429047Y-64737523D01*
X130333809Y-64832761D01*
X130190952Y-64880380D01*
X130095714Y-64880380D01*
X130905238Y-63975619D02*
X130952857Y-63928000D01*
X131048095Y-63880380D01*
X131286190Y-63880380D01*
X131381428Y-63928000D01*
X131429047Y-63975619D01*
X131476666Y-64070857D01*
X131476666Y-64166095D01*
X131429047Y-64308952D01*
X130857619Y-64880380D01*
X131476666Y-64880380D01*
%TO.C,J3*%
X133778666Y-63880380D02*
X133778666Y-64594666D01*
X133731047Y-64737523D01*
X133635809Y-64832761D01*
X133492952Y-64880380D01*
X133397714Y-64880380D01*
X134159619Y-63880380D02*
X134778666Y-63880380D01*
X134445333Y-64261333D01*
X134588190Y-64261333D01*
X134683428Y-64308952D01*
X134731047Y-64356571D01*
X134778666Y-64451809D01*
X134778666Y-64689904D01*
X134731047Y-64785142D01*
X134683428Y-64832761D01*
X134588190Y-64880380D01*
X134302476Y-64880380D01*
X134207238Y-64832761D01*
X134159619Y-64785142D01*
%TO.C,J4*%
X137080666Y-63880380D02*
X137080666Y-64594666D01*
X137033047Y-64737523D01*
X136937809Y-64832761D01*
X136794952Y-64880380D01*
X136699714Y-64880380D01*
X137985428Y-64213714D02*
X137985428Y-64880380D01*
X137747333Y-63832761D02*
X137509238Y-64547047D01*
X138128285Y-64547047D01*
%TO.C,J5*%
X140382666Y-63880380D02*
X140382666Y-64594666D01*
X140335047Y-64737523D01*
X140239809Y-64832761D01*
X140096952Y-64880380D01*
X140001714Y-64880380D01*
X141335047Y-63880380D02*
X140858857Y-63880380D01*
X140811238Y-64356571D01*
X140858857Y-64308952D01*
X140954095Y-64261333D01*
X141192190Y-64261333D01*
X141287428Y-64308952D01*
X141335047Y-64356571D01*
X141382666Y-64451809D01*
X141382666Y-64689904D01*
X141335047Y-64785142D01*
X141287428Y-64832761D01*
X141192190Y-64880380D01*
X140954095Y-64880380D01*
X140858857Y-64832761D01*
X140811238Y-64785142D01*
%TO.C,J6*%
X143684666Y-63880380D02*
X143684666Y-64594666D01*
X143637047Y-64737523D01*
X143541809Y-64832761D01*
X143398952Y-64880380D01*
X143303714Y-64880380D01*
X144589428Y-63880380D02*
X144398952Y-63880380D01*
X144303714Y-63928000D01*
X144256095Y-63975619D01*
X144160857Y-64118476D01*
X144113238Y-64308952D01*
X144113238Y-64689904D01*
X144160857Y-64785142D01*
X144208476Y-64832761D01*
X144303714Y-64880380D01*
X144494190Y-64880380D01*
X144589428Y-64832761D01*
X144637047Y-64785142D01*
X144684666Y-64689904D01*
X144684666Y-64451809D01*
X144637047Y-64356571D01*
X144589428Y-64308952D01*
X144494190Y-64261333D01*
X144303714Y-64261333D01*
X144208476Y-64308952D01*
X144160857Y-64356571D01*
X144113238Y-64451809D01*
%TO.C,J7*%
X146986666Y-63880380D02*
X146986666Y-64594666D01*
X146939047Y-64737523D01*
X146843809Y-64832761D01*
X146700952Y-64880380D01*
X146605714Y-64880380D01*
X147367619Y-63880380D02*
X148034285Y-63880380D01*
X147605714Y-64880380D01*
%TO.C,J8*%
X150288666Y-63880380D02*
X150288666Y-64594666D01*
X150241047Y-64737523D01*
X150145809Y-64832761D01*
X150002952Y-64880380D01*
X149907714Y-64880380D01*
X150907714Y-64308952D02*
X150812476Y-64261333D01*
X150764857Y-64213714D01*
X150717238Y-64118476D01*
X150717238Y-64070857D01*
X150764857Y-63975619D01*
X150812476Y-63928000D01*
X150907714Y-63880380D01*
X151098190Y-63880380D01*
X151193428Y-63928000D01*
X151241047Y-63975619D01*
X151288666Y-64070857D01*
X151288666Y-64118476D01*
X151241047Y-64213714D01*
X151193428Y-64261333D01*
X151098190Y-64308952D01*
X150907714Y-64308952D01*
X150812476Y-64356571D01*
X150764857Y-64404190D01*
X150717238Y-64499428D01*
X150717238Y-64689904D01*
X150764857Y-64785142D01*
X150812476Y-64832761D01*
X150907714Y-64880380D01*
X151098190Y-64880380D01*
X151193428Y-64832761D01*
X151241047Y-64785142D01*
X151288666Y-64689904D01*
X151288666Y-64499428D01*
X151241047Y-64404190D01*
X151193428Y-64356571D01*
X151098190Y-64308952D01*
%TO.C,J9*%
X153590666Y-63880380D02*
X153590666Y-64594666D01*
X153543047Y-64737523D01*
X153447809Y-64832761D01*
X153304952Y-64880380D01*
X153209714Y-64880380D01*
X154114476Y-64880380D02*
X154304952Y-64880380D01*
X154400190Y-64832761D01*
X154447809Y-64785142D01*
X154543047Y-64642285D01*
X154590666Y-64451809D01*
X154590666Y-64070857D01*
X154543047Y-63975619D01*
X154495428Y-63928000D01*
X154400190Y-63880380D01*
X154209714Y-63880380D01*
X154114476Y-63928000D01*
X154066857Y-63975619D01*
X154019238Y-64070857D01*
X154019238Y-64308952D01*
X154066857Y-64404190D01*
X154114476Y-64451809D01*
X154209714Y-64499428D01*
X154400190Y-64499428D01*
X154495428Y-64451809D01*
X154543047Y-64404190D01*
X154590666Y-64308952D01*
%TD*%
M02*
