%TF.GenerationSoftware,KiCad,Pcbnew,5.1.6*%
%TF.CreationDate,2020-09-28T13:50:18+01:00*%
%TF.ProjectId,3PDT,33504454-2e6b-4696-9361-645f70636258,V1.0*%
%TF.SameCoordinates,Original*%
%TF.FileFunction,Copper,L1,Top*%
%TF.FilePolarity,Positive*%
%FSLAX46Y46*%
G04 Gerber Fmt 4.6, Leading zero omitted, Abs format (unit mm)*
G04 Created by KiCad (PCBNEW 5.1.6) date 2020-09-28 13:50:18*
%MOMM*%
%LPD*%
G01*
G04 APERTURE LIST*
%TA.AperFunction,NonConductor*%
%ADD10C,0.300000*%
%TD*%
%TA.AperFunction,Conductor*%
%ADD11C,0.250000*%
%TD*%
G04 APERTURE END LIST*
D10*
X150622285Y-87316571D02*
X151122285Y-88816571D01*
X151622285Y-87316571D01*
X152908000Y-88816571D02*
X152050857Y-88816571D01*
X152479428Y-88816571D02*
X152479428Y-87316571D01*
X152336571Y-87530857D01*
X152193714Y-87673714D01*
X152050857Y-87745142D01*
X153550857Y-88673714D02*
X153622285Y-88745142D01*
X153550857Y-88816571D01*
X153479428Y-88745142D01*
X153550857Y-88673714D01*
X153550857Y-88816571D01*
X154550857Y-87316571D02*
X154693714Y-87316571D01*
X154836571Y-87388000D01*
X154908000Y-87459428D01*
X154979428Y-87602285D01*
X155050857Y-87888000D01*
X155050857Y-88245142D01*
X154979428Y-88530857D01*
X154908000Y-88673714D01*
X154836571Y-88745142D01*
X154693714Y-88816571D01*
X154550857Y-88816571D01*
X154408000Y-88745142D01*
X154336571Y-88673714D01*
X154265142Y-88530857D01*
X154193714Y-88245142D01*
X154193714Y-87888000D01*
X154265142Y-87602285D01*
X154336571Y-87459428D01*
X154408000Y-87388000D01*
X154550857Y-87316571D01*
X126596000Y-88673714D02*
X126524571Y-88745142D01*
X126310285Y-88816571D01*
X126167428Y-88816571D01*
X125953142Y-88745142D01*
X125810285Y-88602285D01*
X125738857Y-88459428D01*
X125667428Y-88173714D01*
X125667428Y-87959428D01*
X125738857Y-87673714D01*
X125810285Y-87530857D01*
X125953142Y-87388000D01*
X126167428Y-87316571D01*
X126310285Y-87316571D01*
X126524571Y-87388000D01*
X126596000Y-87459428D01*
X127453142Y-88816571D02*
X127310285Y-88745142D01*
X127238857Y-88673714D01*
X127167428Y-88530857D01*
X127167428Y-88102285D01*
X127238857Y-87959428D01*
X127310285Y-87888000D01*
X127453142Y-87816571D01*
X127667428Y-87816571D01*
X127810285Y-87888000D01*
X127881714Y-87959428D01*
X127953142Y-88102285D01*
X127953142Y-88530857D01*
X127881714Y-88673714D01*
X127810285Y-88745142D01*
X127667428Y-88816571D01*
X127453142Y-88816571D01*
X128596000Y-87816571D02*
X128596000Y-88816571D01*
X128596000Y-87959428D02*
X128667428Y-87888000D01*
X128810285Y-87816571D01*
X129024571Y-87816571D01*
X129167428Y-87888000D01*
X129238857Y-88030857D01*
X129238857Y-88816571D01*
X129738857Y-87816571D02*
X130310285Y-87816571D01*
X129953142Y-87316571D02*
X129953142Y-88602285D01*
X130024571Y-88745142D01*
X130167428Y-88816571D01*
X130310285Y-88816571D01*
X131381714Y-88745142D02*
X131238857Y-88816571D01*
X130953142Y-88816571D01*
X130810285Y-88745142D01*
X130738857Y-88602285D01*
X130738857Y-88030857D01*
X130810285Y-87888000D01*
X130953142Y-87816571D01*
X131238857Y-87816571D01*
X131381714Y-87888000D01*
X131453142Y-88030857D01*
X131453142Y-88173714D01*
X130738857Y-88316571D01*
X132096000Y-87816571D02*
X132096000Y-88816571D01*
X132096000Y-87959428D02*
X132167428Y-87888000D01*
X132310285Y-87816571D01*
X132524571Y-87816571D01*
X132667428Y-87888000D01*
X132738857Y-88030857D01*
X132738857Y-88816571D01*
X133238857Y-87816571D02*
X133810285Y-87816571D01*
X133453142Y-87316571D02*
X133453142Y-88602285D01*
X133524571Y-88745142D01*
X133667428Y-88816571D01*
X133810285Y-88816571D01*
X135381714Y-87459428D02*
X135453142Y-87388000D01*
X135596000Y-87316571D01*
X135953142Y-87316571D01*
X136096000Y-87388000D01*
X136167428Y-87459428D01*
X136238857Y-87602285D01*
X136238857Y-87745142D01*
X136167428Y-87959428D01*
X135310285Y-88816571D01*
X136238857Y-88816571D01*
X137167428Y-87316571D02*
X137310285Y-87316571D01*
X137453142Y-87388000D01*
X137524571Y-87459428D01*
X137596000Y-87602285D01*
X137667428Y-87888000D01*
X137667428Y-88245142D01*
X137596000Y-88530857D01*
X137524571Y-88673714D01*
X137453142Y-88745142D01*
X137310285Y-88816571D01*
X137167428Y-88816571D01*
X137024571Y-88745142D01*
X136953142Y-88673714D01*
X136881714Y-88530857D01*
X136810285Y-88245142D01*
X136810285Y-87888000D01*
X136881714Y-87602285D01*
X136953142Y-87459428D01*
X137024571Y-87388000D01*
X137167428Y-87316571D01*
X138238857Y-87459428D02*
X138310285Y-87388000D01*
X138453142Y-87316571D01*
X138810285Y-87316571D01*
X138953142Y-87388000D01*
X139024571Y-87459428D01*
X139096000Y-87602285D01*
X139096000Y-87745142D01*
X139024571Y-87959428D01*
X138167428Y-88816571D01*
X139096000Y-88816571D01*
X140024571Y-87316571D02*
X140167428Y-87316571D01*
X140310285Y-87388000D01*
X140381714Y-87459428D01*
X140453142Y-87602285D01*
X140524571Y-87888000D01*
X140524571Y-88245142D01*
X140453142Y-88530857D01*
X140381714Y-88673714D01*
X140310285Y-88745142D01*
X140167428Y-88816571D01*
X140024571Y-88816571D01*
X139881714Y-88745142D01*
X139810285Y-88673714D01*
X139738857Y-88530857D01*
X139667428Y-88245142D01*
X139667428Y-87888000D01*
X139738857Y-87602285D01*
X139810285Y-87459428D01*
X139881714Y-87388000D01*
X140024571Y-87316571D01*
%TO.P,J1,1*%
%TO.N,Net-(J1-Pad1)*%
%TA.AperFunction,ComponentPad*%
G36*
G01*
X126583000Y-67223001D02*
X126583000Y-65872999D01*
G75*
G02*
X126832999Y-65623000I249999J0D01*
G01*
X128183001Y-65623000D01*
G75*
G02*
X128433000Y-65872999I0J-249999D01*
G01*
X128433000Y-67223001D01*
G75*
G02*
X128183001Y-67473000I-249999J0D01*
G01*
X126832999Y-67473000D01*
G75*
G02*
X126583000Y-67223001I0J249999D01*
G01*
G37*
%TD.AperFunction*%
%TD*%
%TO.P,J2,1*%
%TO.N,Net-(J2-Pad1)*%
%TA.AperFunction,ComponentPad*%
G36*
G01*
X129885000Y-67223001D02*
X129885000Y-65872999D01*
G75*
G02*
X130134999Y-65623000I249999J0D01*
G01*
X131485001Y-65623000D01*
G75*
G02*
X131735000Y-65872999I0J-249999D01*
G01*
X131735000Y-67223001D01*
G75*
G02*
X131485001Y-67473000I-249999J0D01*
G01*
X130134999Y-67473000D01*
G75*
G02*
X129885000Y-67223001I0J249999D01*
G01*
G37*
%TD.AperFunction*%
%TD*%
%TO.P,J3,1*%
%TO.N,Net-(J3-Pad1)*%
%TA.AperFunction,ComponentPad*%
G36*
G01*
X133187000Y-67223001D02*
X133187000Y-65872999D01*
G75*
G02*
X133436999Y-65623000I249999J0D01*
G01*
X134787001Y-65623000D01*
G75*
G02*
X135037000Y-65872999I0J-249999D01*
G01*
X135037000Y-67223001D01*
G75*
G02*
X134787001Y-67473000I-249999J0D01*
G01*
X133436999Y-67473000D01*
G75*
G02*
X133187000Y-67223001I0J249999D01*
G01*
G37*
%TD.AperFunction*%
%TD*%
%TO.P,J4,1*%
%TO.N,Net-(J4-Pad1)*%
%TA.AperFunction,ComponentPad*%
G36*
G01*
X136489000Y-67223001D02*
X136489000Y-65872999D01*
G75*
G02*
X136738999Y-65623000I249999J0D01*
G01*
X138089001Y-65623000D01*
G75*
G02*
X138339000Y-65872999I0J-249999D01*
G01*
X138339000Y-67223001D01*
G75*
G02*
X138089001Y-67473000I-249999J0D01*
G01*
X136738999Y-67473000D01*
G75*
G02*
X136489000Y-67223001I0J249999D01*
G01*
G37*
%TD.AperFunction*%
%TD*%
%TO.P,J5,1*%
%TO.N,Net-(J5-Pad1)*%
%TA.AperFunction,ComponentPad*%
G36*
G01*
X139791000Y-67223001D02*
X139791000Y-65872999D01*
G75*
G02*
X140040999Y-65623000I249999J0D01*
G01*
X141391001Y-65623000D01*
G75*
G02*
X141641000Y-65872999I0J-249999D01*
G01*
X141641000Y-67223001D01*
G75*
G02*
X141391001Y-67473000I-249999J0D01*
G01*
X140040999Y-67473000D01*
G75*
G02*
X139791000Y-67223001I0J249999D01*
G01*
G37*
%TD.AperFunction*%
%TD*%
%TO.P,J6,1*%
%TO.N,Net-(J6-Pad1)*%
%TA.AperFunction,ComponentPad*%
G36*
G01*
X143093000Y-67223001D02*
X143093000Y-65872999D01*
G75*
G02*
X143342999Y-65623000I249999J0D01*
G01*
X144693001Y-65623000D01*
G75*
G02*
X144943000Y-65872999I0J-249999D01*
G01*
X144943000Y-67223001D01*
G75*
G02*
X144693001Y-67473000I-249999J0D01*
G01*
X143342999Y-67473000D01*
G75*
G02*
X143093000Y-67223001I0J249999D01*
G01*
G37*
%TD.AperFunction*%
%TD*%
%TO.P,J7,1*%
%TO.N,Net-(J7-Pad1)*%
%TA.AperFunction,ComponentPad*%
G36*
G01*
X146395000Y-67223001D02*
X146395000Y-65872999D01*
G75*
G02*
X146644999Y-65623000I249999J0D01*
G01*
X147995001Y-65623000D01*
G75*
G02*
X148245000Y-65872999I0J-249999D01*
G01*
X148245000Y-67223001D01*
G75*
G02*
X147995001Y-67473000I-249999J0D01*
G01*
X146644999Y-67473000D01*
G75*
G02*
X146395000Y-67223001I0J249999D01*
G01*
G37*
%TD.AperFunction*%
%TD*%
%TO.P,J8,1*%
%TO.N,Net-(J8-Pad1)*%
%TA.AperFunction,ComponentPad*%
G36*
G01*
X149697000Y-67223001D02*
X149697000Y-65872999D01*
G75*
G02*
X149946999Y-65623000I249999J0D01*
G01*
X151297001Y-65623000D01*
G75*
G02*
X151547000Y-65872999I0J-249999D01*
G01*
X151547000Y-67223001D01*
G75*
G02*
X151297001Y-67473000I-249999J0D01*
G01*
X149946999Y-67473000D01*
G75*
G02*
X149697000Y-67223001I0J249999D01*
G01*
G37*
%TD.AperFunction*%
%TD*%
%TO.P,J9,1*%
%TO.N,Net-(J9-Pad1)*%
%TA.AperFunction,ComponentPad*%
G36*
G01*
X152999000Y-67223001D02*
X152999000Y-65872999D01*
G75*
G02*
X153248999Y-65623000I249999J0D01*
G01*
X154599001Y-65623000D01*
G75*
G02*
X154849000Y-65872999I0J-249999D01*
G01*
X154849000Y-67223001D01*
G75*
G02*
X154599001Y-67473000I-249999J0D01*
G01*
X153248999Y-67473000D01*
G75*
G02*
X152999000Y-67223001I0J249999D01*
G01*
G37*
%TD.AperFunction*%
%TD*%
%TO.P,sw1,A1*%
%TO.N,Net-(J1-Pad1)*%
%TA.AperFunction,ComponentPad*%
G36*
G01*
X133840280Y-74498420D02*
X133840280Y-73498420D01*
G75*
G02*
X134340280Y-72998420I500000J0D01*
G01*
X136840280Y-72998420D01*
G75*
G02*
X137340280Y-73498420I0J-500000D01*
G01*
X137340280Y-74498420D01*
G75*
G02*
X136840280Y-74998420I-500000J0D01*
G01*
X134340280Y-74998420D01*
G75*
G02*
X133840280Y-74498420I0J500000D01*
G01*
G37*
%TD.AperFunction*%
%TO.P,sw1,A2*%
%TO.N,Net-(J2-Pad1)*%
%TA.AperFunction,ComponentPad*%
G36*
G01*
X133837740Y-79299020D02*
X133837740Y-78299020D01*
G75*
G02*
X134337740Y-77799020I500000J0D01*
G01*
X136837740Y-77799020D01*
G75*
G02*
X137337740Y-78299020I0J-500000D01*
G01*
X137337740Y-79299020D01*
G75*
G02*
X136837740Y-79799020I-500000J0D01*
G01*
X134337740Y-79799020D01*
G75*
G02*
X133837740Y-79299020I0J500000D01*
G01*
G37*
%TD.AperFunction*%
%TO.P,sw1,A3*%
%TO.N,Net-(J3-Pad1)*%
%TA.AperFunction,ComponentPad*%
G36*
G01*
X133838720Y-84093940D02*
X133838720Y-83093940D01*
G75*
G02*
X134338720Y-82593940I500000J0D01*
G01*
X136838720Y-82593940D01*
G75*
G02*
X137338720Y-83093940I0J-500000D01*
G01*
X137338720Y-84093940D01*
G75*
G02*
X136838720Y-84593940I-500000J0D01*
G01*
X134338720Y-84593940D01*
G75*
G02*
X133838720Y-84093940I0J500000D01*
G01*
G37*
%TD.AperFunction*%
%TO.P,sw1,B1*%
%TO.N,Net-(J4-Pad1)*%
%TA.AperFunction,ComponentPad*%
G36*
G01*
X139138720Y-74495880D02*
X139138720Y-73495880D01*
G75*
G02*
X139638720Y-72995880I500000J0D01*
G01*
X142138720Y-72995880D01*
G75*
G02*
X142638720Y-73495880I0J-500000D01*
G01*
X142638720Y-74495880D01*
G75*
G02*
X142138720Y-74995880I-500000J0D01*
G01*
X139638720Y-74995880D01*
G75*
G02*
X139138720Y-74495880I0J500000D01*
G01*
G37*
%TD.AperFunction*%
%TO.P,sw1,C2*%
%TO.N,Net-(J8-Pad1)*%
%TA.AperFunction,ComponentPad*%
G36*
G01*
X144432080Y-79295880D02*
X144432080Y-78295880D01*
G75*
G02*
X144932080Y-77795880I500000J0D01*
G01*
X147432080Y-77795880D01*
G75*
G02*
X147932080Y-78295880I0J-500000D01*
G01*
X147932080Y-79295880D01*
G75*
G02*
X147432080Y-79795880I-500000J0D01*
G01*
X144932080Y-79795880D01*
G75*
G02*
X144432080Y-79295880I0J500000D01*
G01*
G37*
%TD.AperFunction*%
%TO.P,sw1,B2*%
%TO.N,Net-(J5-Pad1)*%
%TA.AperFunction,ComponentPad*%
G36*
G01*
X139134520Y-79298420D02*
X139134520Y-78298420D01*
G75*
G02*
X139634520Y-77798420I500000J0D01*
G01*
X142134520Y-77798420D01*
G75*
G02*
X142634520Y-78298420I0J-500000D01*
G01*
X142634520Y-79298420D01*
G75*
G02*
X142134520Y-79798420I-500000J0D01*
G01*
X139634520Y-79798420D01*
G75*
G02*
X139134520Y-79298420I0J500000D01*
G01*
G37*
%TD.AperFunction*%
%TO.P,sw1,B3*%
%TO.N,Net-(J6-Pad1)*%
%TA.AperFunction,ComponentPad*%
G36*
G01*
X139133640Y-84086320D02*
X139133640Y-83086320D01*
G75*
G02*
X139633640Y-82586320I500000J0D01*
G01*
X142133640Y-82586320D01*
G75*
G02*
X142633640Y-83086320I0J-500000D01*
G01*
X142633640Y-84086320D01*
G75*
G02*
X142133640Y-84586320I-500000J0D01*
G01*
X139633640Y-84586320D01*
G75*
G02*
X139133640Y-84086320I0J500000D01*
G01*
G37*
%TD.AperFunction*%
%TO.P,sw1,C3*%
%TO.N,Net-(J9-Pad1)*%
%TA.AperFunction,ComponentPad*%
G36*
G01*
X144424460Y-84096480D02*
X144424460Y-83096480D01*
G75*
G02*
X144924460Y-82596480I500000J0D01*
G01*
X147424460Y-82596480D01*
G75*
G02*
X147924460Y-83096480I0J-500000D01*
G01*
X147924460Y-84096480D01*
G75*
G02*
X147424460Y-84596480I-500000J0D01*
G01*
X144924460Y-84596480D01*
G75*
G02*
X144424460Y-84096480I0J500000D01*
G01*
G37*
%TD.AperFunction*%
%TO.P,sw1,C1*%
%TO.N,Net-(J7-Pad1)*%
%TA.AperFunction,ComponentPad*%
G36*
G01*
X144431240Y-74496480D02*
X144431240Y-73496480D01*
G75*
G02*
X144931240Y-72996480I500000J0D01*
G01*
X147431240Y-72996480D01*
G75*
G02*
X147931240Y-73496480I0J-500000D01*
G01*
X147931240Y-74496480D01*
G75*
G02*
X147431240Y-74996480I-500000J0D01*
G01*
X144931240Y-74996480D01*
G75*
G02*
X144431240Y-74496480I0J500000D01*
G01*
G37*
%TD.AperFunction*%
%TD*%
D11*
%TO.N,Net-(J1-Pad1)*%
X135590280Y-73998420D02*
X131656420Y-73998420D01*
X127508000Y-69850000D02*
X127508000Y-66548000D01*
X131656420Y-73998420D02*
X127508000Y-69850000D01*
%TO.N,Net-(J2-Pad1)*%
X137665290Y-72895290D02*
X136909699Y-72139699D01*
X135587740Y-78799020D02*
X137665290Y-76721470D01*
X137665290Y-76721470D02*
X137665290Y-72895290D01*
X136909699Y-72139699D02*
X134115699Y-72139699D01*
X130810000Y-68834000D02*
X130810000Y-66548000D01*
X134115699Y-72139699D02*
X130810000Y-68834000D01*
%TO.N,Net-(J3-Pad1)*%
X138115300Y-70551300D02*
X134112000Y-66548000D01*
X138115300Y-81067360D02*
X138115300Y-70551300D01*
X135588720Y-83593940D02*
X138115300Y-81067360D01*
%TO.N,Net-(J4-Pad1)*%
X140888720Y-70022720D02*
X137414000Y-66548000D01*
X140888720Y-73995880D02*
X140888720Y-70022720D01*
%TO.N,Net-(J5-Pad1)*%
X142963730Y-68795730D02*
X140716000Y-66548000D01*
X142963730Y-76719210D02*
X142963730Y-68795730D01*
X140884520Y-78798420D02*
X142963730Y-76719210D01*
%TO.N,Net-(J6-Pad1)*%
X143413740Y-81056220D02*
X143413740Y-67152260D01*
X143413740Y-67152260D02*
X144018000Y-66548000D01*
X140883640Y-83586320D02*
X143413740Y-81056220D01*
%TO.N,Net-(J7-Pad1)*%
X146181240Y-67686760D02*
X147320000Y-66548000D01*
X146181240Y-73996480D02*
X146181240Y-67686760D01*
%TO.N,Net-(J8-Pad1)*%
X150622000Y-74355960D02*
X150622000Y-66548000D01*
X146182080Y-78795880D02*
X150622000Y-74355960D01*
%TO.N,Net-(J9-Pad1)*%
X153924000Y-75846940D02*
X153924000Y-66548000D01*
X146174460Y-83596480D02*
X153924000Y-75846940D01*
%TD*%
M02*
